<svg xmlns="http://www.w3.org/2000/svg" viewBox="0 0 100 100"><path d="M63.397252 0 44.642386 32.546205l-11.19097-11.209214 4.112166 15.296015L0 36.602306l32.54665 18.75487-11.209663 11.19142 15.296463-4.11217-.03115 37.56314 18.754872-32.54666 11.19142 11.20967-4.11217-15.29601L100 63.397266l-32.546208-18.75487 11.20922-11.19097-15.29646 4.11217zM49.999774 12.270196a37.729799 37.729799 0 0 0-18.137595 4.665796l9.117085 9.132664a25.602361 25.602361 0 0 1 4.523828-1.232758l7.165587-12.434862a37.729799 37.729799 0 0 0-2.668905-.13084zm16.488278 3.841141-.0116 14.331169a25.602361 25.602361 0 0 1 3.31243 3.339574l12.42373-3.34002a37.729799 37.729799 0 0 0-15.72457-14.330723Zm-36.045995 1.676018a37.729799 37.729799 0 0 0-14.330282 15.724146l14.330726.01154a25.602361 25.602361 0 0 1 3.339134-3.311538zm52.621955 14.074826-9.13222 9.117085a25.602361 25.602361 0 0 1 1.23232 4.52294l12.43485 7.16602a37.729799 37.729799 0 0 0 .13084-2.66845 37.729799 37.729799 0 0 0-4.66579-18.137595zm-33.064238 9.005385a9.1322021 9.1322021 0 0 1 9.132218 9.13221 9.1322021 9.1322021 0 0 1-9.132218 9.13221 9.1322021 9.1322021 0 0 1-9.132216-9.13221 9.1322021 9.1322021 0 0 1 9.132216-9.13221zm-37.598739 6.46331a37.729799 37.729799 0 0 0-.130842 2.6689 37.729799 37.729799 0 0 0 4.665797 18.13759l9.132217-9.11708a25.602361 25.602361 0 0 1-1.232761-4.52383zm17.810491 18.88748-12.424175 3.33958a37.729799 37.729799 0 0 0 15.724145 14.33029l.01202-14.33029a25.602361 25.602361 0 0 1-3.311987-3.33958zm39.380236.25813a25.602361 25.602361 0 0 1-3.37073 3.32533l3.33691 12.41038a37.729799 37.729799 0 0 0 14.33073-15.72414zm-10.55234 7.47355a25.602361 25.602361 0 0 1-4.56611 1.25367l-7.142439 12.39481a37.729799 37.729799 0 0 0 2.668901.13084 37.729799 37.729799 0 0 0 18.138038-4.6658z"/></svg>