<svg xmlns="http://www.w3.org/2000/svg" viewBox="0 0 100 100"><path fill="#333" d="M69.73 89.18c-1.94 0-2.82-.38-4.89-2.16-3.79-3.25-6.46-3.56-8.81-1.02-2.52 2.72-6.15 1.93-7.09-1.56-1.26-4.7 3.66-7.31 7-3.7 1.02 1.09 1.22 1.1 3.65.38 1.66-.5 3.27-.64 4.5-.42 4.13.74-.7-10.01-5.8-12.9-4.43-2.53-4.51-6.45-.14-7.66 2.1-.59 5.11.93 4.93 2.48-.54 4.6-.5 5.02.59 6.58 3.35 4.8 8 2.5 7.32-3.65-.42-3.82-.45-8.12-.07-9.92.38-1.8-.01-3.38-1.35-5.51-1.97-3.14-.56-5.9 3.6-7.05 5.32-1.47 7.77 4.44 3.7 8.93-7.28 8.04-1.26 23.87 6.48 17.04 1.58-1.4 3.12-2.6 3.42-2.69.84-.23 4.48-3.27 4.38-3.65-.24-.84 2.57-5.1 3.54-5.36 3.26-.9 6.6 4.34 4.63 7.28-.98 1.47-3.24 2.48-3.98 1.8-.5-.47-4.19.5-5.11 1.35-.38.33-1.5 1.28-2.5 2.1-2.43 2-5.33 6.75-6.65 10.9a11.82 11.82 0 0 1-11.35 8.41zM22.86 55.53c-2.63-1.76-3.85-3.6-4.95-7.51-2.35-8.28-7.9-14.5-12.94-14.5-2.84 0-4.5-1.29-4.83-3.75-.78-5.65 7.46-7.16 8.35-1.53.31 1.96 1.16 3.01 4.39 5.41 1.42 1.06 3.3 2.7 4.17 3.65 3.65 3.96 6.09 2.72 8.4-4.29 1.67-5 1.02-10.08-1.64-13-3.4-3.73-1.6-9.3 2.98-9.2 3.12.09 6.51 4.2 5.2 6.32-2.04 3.33-2.42 4.67-2.45 8.75-.05 6.4-.1 7.04-.6 8.6-1.28 3.83 2.2 6.85 5.53 4.8 1.85-1.14 2.68-3.14 2.6-6.27-.09-3.46 1.95-5.04 5.14-3.99 4.29 1.42 3.82 5.72-.86 7.86-2.27 1.04-2.73 1.5-4.5 4.47-1.07 1.82-2.5 4.19-3.16 5.26-1.6 2.58-1.26 3.23 1.45 2.8a6.02 6.02 0 0 1 4 .56c2.16 1.02 3.14.85 4.76-.81 2.14-2.2 6.37-.48 6.51 2.64.2 4.74-4.56 6.64-7.68 3.06-2.27-2.6-4.45-2.36-9.15.99-3.22 2.3-6.96 2.18-10.72-.32z"/></svg>