<svg xmlns="http://www.w3.org/2000/svg" version="1.0" viewBox="0 0 750 750" fill="#74A84F"><path d="m342 15 13 51 9-7a296 296 0 0 1 45-28l-33-8-33-8h-1zm293 7-30 7 8 4a298 298 0 0 1 70 47l-8-33c-5-23-8-33-9-33l-31 8zM16 18l37 141 1 5 8 2 104 31 40 12a5474 5474 0 0 0-34-156l-42-10-72-18-37-9-6-1v3zm303 0a26508 26508 0 0 1-137 35l5 24a14114 14114 0 0 1 29 129 370 370 0 0 0 56-7l5-12c11-40 30-73 61-106l9-9-1-5c-9-37-13-52-15-52l-13 3z"/><path d="M478 23c-54 8-98 31-134 68a214 214 0 0 0-60 153 242 242 0 0 0 44 141l-32 30-31 29 12 11 21 21 10 9 29-29 30-29 10 6c77 48 165 54 241 15a224 224 0 0 0-58-422c-24-5-60-6-83-3zm63 38a191 191 0 0 1 163 207c-12 98-98 171-199 167-27-1-49-6-73-17a186 186 0 0 1-36-322 201 201 0 0 1 145-35z"/><path d="M487 68a181 181 0 0 0-107 304c27 27 61 43 103 50 13 2 50 2 62 0a176 176 0 0 0 149-193 182 182 0 0 0-44-104 189 189 0 0 0-164-57zm-48 49c14 5 23 22 20 39s-14 26-30 26c-14 0-23-5-29-17-2-6-2-8-2-15 0-15 5-25 15-30 8-5 17-6 26-3zm59 16c13 4 19 19 14 34-1 6-7 12-12 14-3 1-14 1-17-1-2 0-2 1-2 9v10h-11v-65l5-1h23zm57 1c6 4 10 12 10 22v5h-32v3c1 4 6 8 11 9l10-1 7-1v5l1 4-4 1-12 1c-13 0-22-6-24-18-3-13 2-25 12-30 5-3 16-3 20 0zm51 0c8 4 10 9 10 32v15h-11v-17c0-14-1-16-3-19s-6-4-12-3l-3 1-1 19v19h-11v-23l1-24c5-2 24-3 30 0zm-169 74 5 3-3 9-5-1-9-2c-5 0-7 0-9 3-2 2-2 3-2 5 1 4 4 6 13 10l11 5c4 3 7 9 7 16s-3 11-9 15c-4 2-6 3-14 3l-16-2c-6-2-6-3-3-9 1-3 1-3 6-1 8 3 21 2 23-2 3-6 0-11-12-16l-12-6c-10-8-7-26 7-30 4-1 16-1 22 1zm27 9v7h18v9h-18v14c0 13 1 13 3 15s3 2 9 2l6-1v8c0 2-10 3-15 2-7-1-11-4-13-10l-1-28v-24l4-1 4-1h2l1 7zm176 0v7h17v9h-17v14c0 13 1 14 2 16h12c3-1 3-1 3 1 2 7 2 7-4 9-6 1-13 1-17-2-2 0-4-3-5-5-2-4-2-6-3-30v-25l5-1 6-1 1 7zm-120 7-1 5v5l-8-1-9 1v19l-1 20h-10v-47l4-1 5-1h19zm35 0c7 3 12 11 12 19 0 10 2 9-16 9h-16v2c3 7 8 11 18 10l8-2c2 0 2 0 3 4v5c-1 1-15 3-20 2-9-1-17-7-19-15-2-6-1-17 1-21 2-5 7-11 11-13h18zm53 1c2 1 5 3 6 6 3 4 5 12 5 17l-1 3-15 1c-14 0-16 0-16 2 0 3 3 7 7 9h19c1 0 2 0 2 4 1 4 1 4-3 5-23 7-39-5-37-27 1-10 6-17 14-20 5-2 14-2 19 0zm-192 88 10 20 3 7 7-15 9-20 3-6h6c5 0 5 0 5 3l5 51v11h-5c-6 0-6 0-6-3a379 379 0 0 1-3-41c-1-1-12 23-15 32-1 3-2 3-6 3h-5l-7-18-9-17-2 20-1 22c0 2-1 2-6 2h-5v-12l4-51c1-2 2-2 6-2h6l6 14zm87 3c7 4 8 7 8 28v18l-3 1-14 1c-9 1-11 0-14-1-5-4-8-7-8-13 0-7 3-10 8-13 3-2 5-2 12-2h9l-1-3c-1-5-2-7-6-8-3-1-8-1-14 1-2 0-2 0-3-4v-5l15-2 11 2zm48-1c6 2 12 8 14 14 4 10 2 23-5 30-6 6-16 7-23 4-2-1-2 0-2 9v9h-12l1-32v-32l5-2h22z"/><path d="M421 128c-8 4-11 10-11 21 0 15 6 23 18 23 7 0 12-2 15-8 3-4 4-5 4-13 0-9 0-10-3-15-2-4-4-6-7-8-5-2-12-3-16 0zm63 14h-3v14l1 14 4 2c6 2 12 0 14-5 4-8 2-21-4-24-2-1-9-2-12-1zm55 1c-3 1-6 6-6 8l11 1h10v-3c-1-3-6-8-10-8l-5 2zm3 90c-2 1-6 6-6 8s1 2 10 2c11 0 11 0 9-5s-8-7-13-5zm51 1c-3 1-6 6-6 8l10 1h10v-3c0-3-5-8-9-8l-5 2zM487 343c-5 2-5 10 1 12h11c2 0 2-1 2-6v-7h-6l-8 1zm48-5v15l4 1c8 3 14-1 16-10 2-7 0-13-3-17-2-2-4-3-10-3h-7v14zM36 249l-19 76 14 5 50 15c43 12 86 23 87 22a875 875 0 0 0 37-147L56 174c-2 0-3 3-20 75zm208-34c-24 4-27 5-28 6l-11 43-18 72-8 32 25-6a1886 1886 0 0 1 84-19l-2-8a271 271 0 0 1-14-123l-28 3zM25 369l8 33 10 4c23 11 35 19 63 48 26 25 29 27 43 28h8l14-14c8-7 14-14 14-15l-2-12-8-33c-7-31-6-28-12-30L17 336l8 33zm248-13-86 20-8 2v5l13 59 1 4 5-4c5-4 13-8 20-10 11-2 28-1 36 4l3 2 6-5 29-27 23-21-6-8-10-16c-4-7-6-9-8-9l-19 4zm407 65c-46 36-81 52-140 62-7 1-7 1-7 4l3 17c2 21 2 20 5 20l18-3 147-37-18-69-8 6zm-641 6 16 64 37 9 36 9 6-5c5-4 6-6 4-6l-10-4c-17-8-28-17-47-39a90 90 0 0 0-29-24c-6-3-13-5-13-4zm333 14 5 22 5 22 3 1 24 6 23 7c2 0 2-1 2-14v-13l-12-5a266 266 0 0 1-50-26zm-150 2c-11 2-14 4-48 37l-44 43-46 45-44 42C8 641 6 644 5 657c-1 16 2 21 33 51 31 29 32 30 49 30 9 0 10 0 16-3 7-3 17-13 86-80l60-58 51-49c9-9 13-21 11-33-2-11-5-14-26-35-32-32-35-35-48-37h-15zm129 17c-22 22-35 35-33 35l48-8c6-1 7-1 6-3l-8-36-14 12zm100 30 1 12 5 2a2431 2431 0 0 1 69 20c3 0 3 0 2-3l-2-19-2-16-15-1c-22-1-32-2-55-8h-3v13zm-69 6c-2 4-20 87-19 88l21-5c10-3 21-8 27-13 14-9 22-28 22-50l1-8-23-6-29-6zm263 14-83 20-26 6-4 23a3538 3538 0 0 1-27 128l62-14 80-20 20-4 1-4a31017 31017 0 0 0 36-150l-59 14z"/><path d="m347 499-23 3h-4l2 6c2 4 2 7 2 16-1 15-5 25-18 38l-6 7 3 1c10 6 31 12 44 14h6l6-25c6-23 13-58 13-61 0-2-2-2-25 1zm-294 3L25 610l27-26 49-47 21-21-32-9-34-9c-2 0-2 1-3 4zm399 13-2 10c-4 30-17 50-38 61-11 5-33 11-49 14l-6 1-6 23-7 24a2404 2404 0 0 0 153 37c3-3 31-146 30-149-1-2-40-14-64-20l-11-3v2zm-190 89-83 82 155-36 14-49-10-3a121 121 0 0 1-51-18l-25 24z"/></svg>