<svg xmlns="http://www.w3.org/2000/svg" viewBox="0 0 100 100"><path d="M26.3 99.83a7.53 7.53 0 0 1 1.63-1.94s8.82-.33 10.67-1.65c1.11-7.09 1.72-13.9 2.38-20.7l3.9-3.12c-2.3 7.45-3.22 15.46-3.99 24.03.8.85 3.41 1.66 3.41 1.66s.54.55.8 1.62c-6.58 0-13.19.22-18.8.1zm1.1-10.69c.44-3.2 1.85-8.29 3.16-11.26 6.33-4.83 13.15-10.04 18.54-15.95-.8-2.1-2.88-3.99-3.84-5.34l-.89.31c.24 2.36.52 4.6.36 7.64-.84 1.08-4.53 3.64-4.53 3.64-.68-1.92-2.51-8.46-4.19-9.3-10.06-.15-19.31-5.38-21.5-14.95-1.31-11.3.24-23.44 1.39-33.78.44-4.06 3.52-7.44 7.25-9C26.9-.42 31.7-.32 34.84 2.5c2.15 1.93 2.64 5.54 2.64 5.54 4.85 2.42 10.15 3.31 14.7 5.2-5.3.77-9.52.72-13.96 1.22-.8 2.1-.3 5.56 1.07 7.06 1.63 1.8 6.76 1.77 10.13 2.33 5.7.95 11.46 1.41 17.19 2.12 5.68.7 11.47.3 17.12 1.27 2.61.45 3.59.41-.54 3.91C73.04 38.32 56.7 43.11 45.56 41.4c-8.88-1.98-6.6-8.36-2.89-14-5.38 2.45-8.1 8.87-5.39 13.1 8.67 9.23 24.56 3.18 35-.41-4.44 4.9-10.56 10.87-17.25 12.44a62.7 62.7 0 0 0 2.14 10.1c-2.1 1.98-4.83 3.1-7.1 4.86A383.19 383.19 0 0 0 33.5 79.37c-.43 2.94-.37 5.47-.37 5.47s-.25 1.93-2.4 5.52c-1.73.1-1.82.64-3.33-1.22zm1.76-78.1c1.86-1.55-.5-4.84-2.65-3.7-2.07 1.08-.94 4.86 1.39 4.32.46-.1.9-.3 1.26-.61z"/></svg>