<svg xmlns="http://www.w3.org/2000/svg" version="1.0" viewBox="0 0 2000 2000"><defs><linearGradient id="sg" x1="1" y1="1" x2="0" y2="0"><stop offset="0%" stop-color="#2F897B"/><stop offset="100%" stop-color="#43A958"/></linearGradient></defs><path fill="url(#sg)" d="M418 1A451 451 0 0 0 1 420v1160a449 449 0 0 0 419 419h1160a449 449 0 0 0 419-419V420A449 449 0 0 0 1580 1H418zm578 499c44 2 81 7 122 16 45 10 80 20 155 47 64 23 90 32 119 39a312 312 0 0 0 275-53l22-13c11-3 25 5 29 16 2 6 1 19-3 59-38 407-116 635-260 761a566 566 0 0 1-349 127c-21 2-79 2-100 0-77-5-132-16-254-48-90-24-117-30-160-36a413 413 0 0 0-175 14c-26 8-68 27-86 40-15 10-18 11-25 11-8 0-13-2-18-7-8-8-8-13-4-68 23-294 76-497 166-641a537 537 0 0 1 405-255 820 820 0 0 1 141-9z"/><path fill="url(#sg)" d="M1078 714c-9 1-15 4-20 9-7 8-8 17-2 21 3 3 4 3 10 3a278 278 0 0 1 180 74l-6 1-18-3c-49-5-108-4-162 5a854 854 0 0 0-498 284c-38 45-63 85-65 107 0 6 0 7 2 9 3 4 6 4 11 1 6-3 10-7 22-20 46-54 95-99 149-140a832 832 0 0 1 360-160c25-4 45-5 76-6a407 407 0 0 1 105 11l-14 14c-43 39-77 88-95 137-5 13-5 18-4 23 2 3 2 3 5 3 4-1 7-3 20-15 74-66 142-108 201-123 22-5 34-6 79-5 34 0 42-6 30-26-14-25-51-63-88-92a577 577 0 0 0-256-112h-22z"/></svg>