<svg xmlns="http://www.w3.org/2000/svg" version="0.0" viewBox="0 0 180 180"><style>* {fill:#2d4739;} @media (prefers-color-scheme: dark){ * {fill:#c1d7ae;}}</style><path d="M71.1 9a68.2 68.2 0 0 0-63 42.4 71.4 71.4 0 0 1 43.5-34.8 65.4 65.4 0 0 1 54.3 7.8 57 57 0 0 1 24.4 36.9 49 49 0 0 1-9.8 40.5 37 37 0 0 1-13.4 10.3c-5 2.5-10.5 4.5-16.1 4.8.2-7.5-2-15.1-6.3-21.4-2.6 1.6-5.5 2.9-8.1 4.4-1.7 2-3.8 5-2.2 7.6 1.3 2.6 5 1.8 6.4 4.1 2 2.7-.7 6.8-4 5-3.2-.7-5-3.8-5.6-6.8.2-3-2.7-3.4-3.7-.8-1 2.3-.7 5.2-2.4 7.3-1.2 2-4 2.8-5.9 1.2-2.3-1.7-1-5 .6-6.6 1.9-2.5 5.4-3.2 6.8-6-1.3-2-4.4.4-6.3.6-2.2.4-5.6.6-6.4-2-1-3.5 2.6-5.8 5.7-5 2.6.5 5.3 3.4 7.9 1.2a14 14 0 0 0 5.8-6c1.8-2.6 4-5 6.6-6.9 4.6-3.9 8.8-8.5 11.1-14.2-4.8 3-10.7 2-15.9.7-5-1-9.4-3.6-14.3-5-4.3-1-8.8-1.4-13.2-1.3-5 .4-10 2.2-15.1 2.3-5.3.3-11.2.3-15.5-3.2-.7-.2.6 3 1 4 .6 3 2.4 5 5.3 5.4 8.5 3 17.7 3 26.4 4.6 1.5.2 5 1 5.2 1.2-8.8-1.1-17.7-1-26.4-2.2A35 35 0 0 1 4.4 63.9c-2 9.4-1.8 19.2.4 28.6 2.4-1.8 1.8-5 1.5-7.5-.1-2.8 2.3-6 5.2-4.6 3.2 1.5 1.8 5.7 0 7.8-.7.9-3.3 5-.5 2.8 2.7-2 4.5-6 8.3-6 3.4-.2 4.9 4.6 1.5 6-2.3 1.7-5.3.8-7.7 2-2.5.7-1.1 2 .7 2 3 1 6.8-1 8.9 1.9 1.1 2.6-2 5.4-4.7 4.4-2.7-.5-4.2-3.4-7-3.8-2-.3-6.2-.8-4 2.3a68.2 68.2 0 0 0 95.2 38.2 39.6 39.6 0 0 0 16-14c-19 7.8-40.3 8.5-60.2 4.3A51.3 51.3 0 0 1 24 105a85 85 0 0 0 33.8 16.3c14 3.8 29 5.6 43.5 3a50 50 0 0 0 28.4-15.7c3.6-4 6.2-9 7.3-14.3A68.2 68.2 0 0 0 71.6 9Z"/><path d="M34.5 35.6a9 9 0 0 0-7.3 4 4.9 4.9 0 0 1 5.1-.9c3 1 4.6 4.3 4.7 7.4.1 3-1 6.3-3.3 8.3-2.2 1.9-5.2 3.1-8 2.3-1.5-.4-2.4-1.8-2.7-3.2-3 2.3-5.4 5.5-6.2 9.3 1.8 2.8 5.2 4.2 8.4 4.6 4.4.4 8.8 0 13-1.2 4-1.1 8-2.2 12-2.2 2.7-.1 5.4 0 8 .7 4 .8 7.8 2.5 11.4 4.4 3.3 1.6 6.9 2.7 10.5 3.3 3.4.5 7.3.5 10.2-1.7 1.6-.8 1-2.5.7-4-.6-2.7-2-5.2-4-7.3-.6 1.7-2.3 3-4 2.7-3.7-.3-6.8-3-8-6.3-1.1-3-.8-6.5.9-9.3 1.4-2.4 4.3-4 7.1-3.3 1 .4 1.8 1 2.5 1.8a8.9 8.9 0 0 0-7-5.4c-4-.5-7.7 1.5-10.8 3.8l-3.9 3.3a25.2 25.2 0 0 0-15.7-1.4 24.9 24.9 0 0 0-9.8-9 10 10 0 0 0-3.8-.7zM49 55.2c1.7.2 2.7 2 2.8 3.6.5 1.5-1.5 2.1-2.5 1.2-1.3-1-2-2.9-1.2-4.3.2-.3.5-.5.9-.5zm11.5 1.1c1.5 0 1.5 2 .9 3-.7 1.2-2.2 2.4-3.6 1.7-1-.8-.3-2.2.2-3 .6-.9 1.5-1.6 2.5-1.7z"/><path d="M87 52.2c0 3.8-2 7.1-3.9 7-2.7 0-4.8-3-4.8-6.9 0-3.8 2.1-7 4.8-7 1.8 0 3.8 3 3.8 6.9zm-62.6-5.8c-.7 3.8.6 7.4 2.5 7.7 2.6.4 5.3-2.2 6-6 .7-3.8-.8-7.2-3.5-7.7-1.7-.3-4.3 2.2-5 6zm109.8 65.3a72 72 0 0 1-19.8 22.8C141.1 143.8 161 171 161 171c7-3.7 12.8-9.9 16-17.1 0 0-32.7-18-42.7-42.2z"/></svg>