<svg xmlns="http://www.w3.org/2000/svg" version="0.0" viewBox="0 0 300 167.71"><path d="M68.09 5.8C46 5.66 24.25 17.14 11.93 35.46A67.01 67.01 0 0 0 5.1 48.13c9.1-16.78 25.06-29.73 43.5-34.78 18.09-5.17 38.59-2.9 54.3 7.79 12.6 8.4 21.7 21.95 24.35 36.9 2.65 14.03-.39 29.44-9.73 40.49-3.55 4.52-8.3 7.89-13.47 10.34-5.02 2.53-10.44 4.5-16.1 4.82a36.45 36.45 0 0 0-6.25-21.44c-2.6 1.65-5.48 2.87-8.14 4.38-1.68 1.98-3.82 4.99-2.19 7.59 1.33 2.62 4.94 1.88 6.4 4.19 1.95 2.69-.65 6.72-3.93 5.03-3.27-.76-5.04-3.88-5.71-6.92.2-2.98-2.7-3.35-3.64-.77-1.11 2.32-.71 5.19-2.43 7.29-1.15 2-4 2.84-5.84 1.23-2.3-1.68-1.02-4.93.55-6.65 1.89-2.41 5.4-3.14 6.8-5.98-1.33-2.05-4.38.47-6.34.6-2.17.46-5.52.6-6.34-2.02-1.11-3.41 2.62-5.78 5.66-4.87 2.61.41 5.3 3.27 7.9 1.15 2.62-1.23 4.37-3.57 5.81-6a24.65 24.65 0 0 1 6.59-6.9c4.62-3.9 8.81-8.56 11.14-14.2-4.77 2.96-10.72 1.88-15.88.68-4.99-1.04-9.45-3.6-14.3-5.04a53.16 53.16 0 0 0-13.23-1.3c-5.1.4-9.98 2.22-15.11 2.36-5.26.27-11.17.29-15.46-3.21-.77-.26.6 3 .9 4.06.63 2.91 2.45 4.86 5.4 5.3 8.49 3.06 17.61 3.01 26.4 4.56 1.5.27 4.94 1.07 5.13 1.3-8.77-1.17-17.65-1.08-26.41-2.26-9.58-1.64-18.97-6.76-24.1-15.23a67.3 67.3 0 0 0 .44 28.65c2.37-1.85 1.85-4.98 1.46-7.56-.09-2.73 2.32-5.9 5.27-4.57 3.15 1.47 1.73 5.71-.01 7.8-.76.9-3.28 5-.51 2.84 2.67-2.1 4.49-5.95 8.31-6.08 3.43-.14 4.89 4.62 1.49 6.06-2.26 1.7-5.3.76-7.72 2.09-2.44.56-1.08 2 .76 1.94 2.88.88 6.74-1.03 8.82 1.82 1.17 2.62-2.05 5.4-4.62 4.49-2.74-.5-4.23-3.47-7.07-3.81-2.04-.35-6.22-.8-4.07 2.25 6.45 18.73 21.62 34.13 40.16 41.04a69.62 69.62 0 0 0 55.14-2.77c6.36-3.27 12.25-7.86 16.02-14.02-18.98 7.8-40.3 8.46-60.23 4.31-10.87-2.28-21.3-7.58-28.59-16.1a55.18 55.18 0 0 1-5.36-7.27c9.52 8.36 21.65 13.03 33.7 16.38 14.13 3.72 29.07 5.51 43.56 3.02 10.81-2 21.13-7.43 28.39-15.74A32.64 32.64 0 0 0 134 91.02c5.23-19.92.86-42.14-11.78-58.44C109.71 16.08 89.36 5.76 68.6 5.8Z"/><path d="M31.44 32.33c-2.94-.03-5.67 1.68-7.3 4.07a4.86 4.86 0 0 1 5.18-.94c2.97 1.1 4.58 4.32 4.65 7.35.15 3.08-.91 6.31-3.3 8.34-2.15 1.87-5.2 3.14-8.03 2.33-1.42-.43-2.35-1.79-2.65-3.18-3.03 2.24-5.44 5.49-6.18 9.23 1.76 2.87 5.12 4.28 8.37 4.58 4.35.43 8.78.08 12.99-1.14 3.93-1.13 7.94-2.18 12.05-2.23 2.67-.12 5.35.1 7.95.7 4.04.8 7.8 2.54 11.45 4.38a34.36 34.36 0 0 0 10.47 3.3c3.42.57 7.28.53 10.15-1.69 1.65-.72 1.05-2.51.78-3.9a16.45 16.45 0 0 0-4.03-7.33c-.64 1.63-2.3 2.87-4.1 2.68-3.58-.3-6.69-3.03-7.98-6.31a11.2 11.2 0 0 1 .92-9.3c1.4-2.4 4.38-4.06 7.14-3.27.99.32 1.83.98 2.47 1.78-1.22-2.83-3.86-5.1-6.98-5.43-3.95-.44-7.66 1.52-10.75 3.78a38.4 38.4 0 0 0-3.9 3.34c-3.41-1.26-7.02-2.35-10.7-2.04-1.68.08-3.35.3-5 .6-2.6-3.61-5.7-7.14-9.87-8.92a9.98 9.98 0 0 0-3.8-.78zm14.51 19.64c1.68.22 2.72 2 2.87 3.57.4 1.56-1.57 2.15-2.55 1.17-1.25-.93-2.05-2.85-1.15-4.26.2-.26.49-.5.83-.48zm11.57 1.12c1.4.05 1.42 2 .83 2.92-.63 1.26-2.2 2.45-3.62 1.76-1-.76-.29-2.26.3-3.1.58-.8 1.47-1.5 2.49-1.58z"/><path d="M83.89 48.93c0 3.85-1.91 7.14-3.8 7.1-2.68-.06-4.85-3.12-4.85-6.97 0-3.84 2.17-6.96 4.85-6.96 1.76 0 3.8 2.98 3.8 6.83zm-62.47-5.76c-.7 3.78.57 7.37 2.43 7.67 2.64.43 5.34-2.17 6.04-5.96.7-3.78-.86-7.24-3.5-7.73-1.72-.32-4.27 2.24-4.97 6.02zm109.72 65.33a71.92 71.92 0 0 1-19.76 22.8c26.68 9.26 46.46 36.41 46.46 36.41a36.55 36.55 0 0 0 16.1-17.07s-32.74-17.9-42.8-42.15zm13.43-48.07c2.19 0 3.3-.68 3.3-1.58-.4-13.96-.58-22.4-.58-25.34v-.14l13.32.86c0 7.12.13 11.85.57 20.47.19 3.62.79 5.62 3.3 5.44 2.29-.18 3.65-.64 3.43-1.72-.75-6.26-.79-10.55-.79-13.6 0-21.08 1.11-35.18 1.5-42.23 0-1.47-1.57-2.33-4.72-2.58-.9-.07-2.14.29-2.14.86L160.6 27.7c-3.3-.18-7.73-.4-13.32-.93 0-3.15-.43-11.42-1.28-24.77 0-.57-.54-1-3.15-.71-2.04.21-3.01.96-3.01 1.72.57 15.32 1.68 41.73 2.15 54.97.07 1.8.46 2.44 2.57 2.44zm35.91 0c2.4-.29 3.57-1.15 3.57-2.58 0-15.14.58-25.91.58-30.14 0-9.34.35-15.24-2.72-15.24h-1.86c-1.61 0-2.55.5-2.44 2.18.19 1.82.75 5.08.57 13.06-.35 14.71-.71 24.8-.71 31.43 0 .86 1.25 1.29 3 1.29zm16.03-.03c2.76 0 4.05-.19 3.9-1.94-.4-4.3-.43-7.91-.5-11.53-.03-1.75-.03-3.9.07-7.58 1.07 2.22 3.8 8.09 5.65 11.45 3.62 6.48 6.2 9.02 7.8 9.02 2.08 0 3.8-1.65 3.48-3.15-.25-1.22-1.32-3.04-3.94-6.9a104.87 104.87 0 0 1-8.02-14.43 434.77 434.77 0 0 1 11.31-17.4c1.19-1.54 2.33-3.18 2-4.04a3.48 3.48 0 0 0-2.96-2.19c-1.11-.1-2.15-.43-3.94 2.26a443.1 443.1 0 0 0-11.24 16.93c.19-2.54.29-4.55.29-7.3 0-5.94-.47-11.24-3.15-11.46-2.58-.21-4.62.25-4.26 1.94.25 1.79.68 3.61.79 8.23.1 5.19-.54 16.25-.4 21.9.19 7.45.32 11.74.43 13.32 0 2.22 1.04 2.86 2.69 2.86zm32.07-.11 13.75-1c1.79-.11 2.43-.58 2.43-3.44 0-1.86-.29-2.87-1.43-2.87-5.7.25-9.56.43-11.6.58l-.28-16.04c5.4-.4 8.44-.6 9.16-.71 1.79-.26 2.15-.65 2.15-2.73 0-2.29.03-3.61-1.58-3.43l-9.45.71c.1-4.33.14-9.55.14-12.74 2.9-.28 5.19-.43 6.87-.43 3.72 0 4.3-.18 4.3-3.25 0-2.8-.61-3.23-2.83-3.23-8.91-.14-12.46 0-13.53.93-1.36 1.15-1.61 11.39-1.83 23.74-.14 7.94.19 15.39.58 22.33 0 1.4 1.03 1.58 3.15 1.58zM201.7 161.45h.13c2.97 0 6.23-1 9.56-3.47 2.97-2.3 4.33-7.59 4.33-15.43 0-4.58.22-7.3-2.08-10.02-2.9-3.4-6.62-2.87-11.1-4.58-2.64-1.04-3.43-2.5-3.28-5.44.1-5.12.25-8.13.43-9.02.57-2.58 1.75-3.87 3.57-3.87 3.33 0 5.02 1.32 5.02 4 0 1.83-.04 3.7-.14 6.3 0 .87 1.18 1.3 2.29 1.3 2.57 0 3.8-.54 3.8-3.62 0-3.25.06-4.9-.22-6.7-.61-4.54-5.2-7.3-10.46-7.3-6.76 0-9.8 4.37-10.27 13.25-.64 12.28.65 15.79 6.55 17.5 7.66 2.22 9.74 3.01 9.74 7.77 0 4.4-.22 7.59-1 9.16a7.23 7.23 0 0 1-6.73 4.16c-1.65 0-3.15-1.8-3.15-3.44 0-3.11.28-5.19.28-6.16 0-.71-1.14-1-2-1h-1c-3.08 0-2.87 3.26-2.87 8.74 0 4.93 3.26 7.87 8.6 7.87zm23.9-.57 13.75-1c1.8-.1 2.43-.58 2.43-3.44 0-1.86-.28-2.86-1.43-2.86-5.69.25-9.55.42-11.6.57l-.28-16.04c5.4-.4 8.45-.6 9.16-.71 1.8-.25 2.15-.65 2.15-2.72 0-2.3.03-3.62-1.57-3.44l-9.45.72c.1-4.34.13-9.56.13-12.75a73.9 73.9 0 0 1 6.88-.43c3.72 0 4.3-.18 4.3-3.25 0-2.8-.62-3.23-2.84-3.23-8.91-.13-12.45 0-13.53.94-1.36 1.14-1.6 11.38-1.82 23.73-.14 7.94.18 15.39.57 22.33 0 1.4 1.04 1.58 3.15 1.58zm26.42 0 13.75-1c1.79-.1 2.43-.58 2.43-3.44 0-1.86-.29-2.86-1.43-2.86-5.7.25-9.56.42-11.6.57l-.28-16.04c5.4-.4 8.44-.6 9.16-.71 1.79-.25 2.15-.65 2.15-2.72 0-2.3.03-3.62-1.58-3.44l-9.45.72c.1-4.34.14-9.56.14-12.75a73.9 73.9 0 0 1 6.87-.43c3.72 0 4.3-.18 4.3-3.25 0-2.8-.61-3.23-2.83-3.23-8.91-.13-12.46 0-13.53.94-1.36 1.14-1.61 11.38-1.83 23.73-.13 7.94.19 15.39.58 22.33 0 1.4 1.04 1.58 3.15 1.58zm26.17.1c2.75 0 4.04-.18 3.9-1.93-.4-4.3-.43-7.9-.5-11.52-.04-1.76-.04-3.9.06-7.6 1.08 2.23 3.8 8.1 5.66 11.46 3.62 6.48 6.2 9.02 7.8 9.02 2.08 0 3.8-1.64 3.48-3.15-.26-1.22-1.33-3.04-3.94-6.9a102.8 102.8 0 0 1-8.02-14.43 435.45 435.45 0 0 1 11.31-17.4c1.18-1.54 2.33-3.18 2-4.04a3.48 3.48 0 0 0-2.97-2.19c-1.1-.1-2.14-.42-3.93 2.26a443.1 443.1 0 0 0-11.24 16.93c.18-2.54.28-4.55.28-7.3 0-5.94-.46-11.24-3.15-11.46-2.57-.21-4.61.25-4.25 1.94.25 1.79.67 3.61.78 8.23.1 5.19-.53 16.25-.4 21.9.2 7.45.33 11.75.44 13.32 0 2.22 1.04 2.86 2.68 2.86zm-57.46-56.28c9.11 0 13.52-3.23 13.52-9.98 0-2.13-.15-4.44-.46-6.91a239.2 239.2 0 0 0 6.27-3.7c1.17-.82-.76-3.43-2.17-3.43-1.14 0-1.29.13-11.35 5.5a77.4 77.4 0 0 0-6.6 4c-.88.5 1.1 2.73 2.46 2.73.84 0 3.2-1.33 5.01-2.23v3.5c0 4.26-1.82 6.38-5.46 6.38-4.86 0-5.47-4.12-5.47-8.29.23-6.83.3-7.76 3.95-7.76 3.23 0 4.86-.61 4.86-1.8 0-1.84-.57-2.77-1.67-2.77-4.56 0-6.68.93-6.68-2.23.8-6.78 1.86-9.97 3.18-10.42 3.23-.3 5.02 1.2 5.02 2.71l-.46 5.05c0 .93.6 1.28 3.5 1.28 3.75 0 3.64-2.29 3.64-6.38 0-3.43-4.86-7.34-10.02-7.34-7.45 0-10.94 2.82-11.7 14.67-.1 1.94.76 3.64 2.28 5.1-2.62 2.45-2.73 4.31-2.73 11.38 0 6.27 3.1 10.95 11.08 10.95z"/></svg>