<svg xmlns="http://www.w3.org/2000/svg" version="1.0" viewBox="0 0 336 297" fill="#73ab00"><path d="M126 .8c0 1.9 5.3 21.4 8.1 29.6 4.4 12.9 12 28.1 17.6 35A97 97 0 0 0 169 80.3c18.3 13 29.4 22.2 43.5 35.9 14.5 14 14.9 14 14.2 1.3-1.2-19.8-17.5-54-34.8-72.9-6.1-6.6-15.9-15-25.4-21.7C155.4 15.1 126-1 126 .8z"/><path d="M0 35.3a57.4 57.4 0 0 0 15.9 23.8c12.1 12 23.1 19.8 60.6 43 3 1.9 3 1.9-13.8 1.9-13.9 0-24.7 1.1-26.6 2.6-.8.7 7.4 10.6 13.8 16.7a144 144 0 0 0 53 30.2l12.4 4.2-7.9.8c-8.7.8-27.9 4-31.3 5.3-2 .7-1.6 1.4 5.7 10.2 17.4 20.8 32.8 33.3 48.5 39.3l8.2 3.2 24 .1c13.2 0 24.5.1 25.1.2 1.8.3 2.3 3.7.9 6.9a157.6 157.6 0 0 1-25.4 30 130 130 0 0 1-61.1 30.4c-3.6.6-7.2 1.3-8 1.6-1.9.6 6.1 3.7 16.5 6.3a157.7 157.7 0 0 0 195-132.4c7-36.2 12.6-48.2 28-59.3 3.7-2.7 2.8-3.9-4.4-5.8a124 124 0 0 0-33.8-3.3c-25 1.3-42.6 12-57.9 35.6-9.1 14-11.5 15.8-16.7 13.1-1.2-.7-8.5-7.5-16.2-15.3-49-49.1-111.3-77.9-190.9-88.5-7.9-1-13.6-1.4-13.6-.8zm295.8 74.3c2.5 2.8 2.7 4.2 1.1 7.8-2 4.3-8.6 5.6-12.6 2.4-1.8-1.5-2.5-5.9-1.3-8.8 2.2-5.4 8.6-6.1 12.8-1.4z"/></svg>