<svg xmlns="http://www.w3.org/2000/svg" xmlns:xlink="http://www.w3.org/1999/xlink" viewBox="0 0 256 256"><defs><path id="reuse-0" d="M9 12.25s7.5 13 11.75 27.75S27 65.5 27 65.5s-5.5 12.75-8.25 24.75-5.75 23-5.75 23 5.75 16 9.25 30S26 167.5 26 167.5s-4 10.25-7.5 24.25-5 30.75-5 30.75 9.25-2 28.5 1.25 32.25 6 32.25 6 12.75-2.75 24-6.25 16.25-6.5 16.25-6.5 5.5.5 22.5 6.25 29.25 8.5 29.25 8.5l26-5.75c13-3 26.5-8 26.5-8s-.75-5 4.25-24.5 8.75-28 8.75-28-.5-4.5-3.75-19.75S218 116 218 116s1.75-10.5 6.75-23.75L235 65.5s-4.75-15.25-7.5-29.75S219.25 10 219.25 10 195 19 187.5 20.5s-21 5.25-21 5.25-9.75-4.25-22-8.5-29.75-5.5-29.75-5.5-3.25 3.5-22 8-27.5 5.75-27.5 5.75-18.5-9-31.5-11.5-24-2-24.75-1.75z" class="C D E"/><path id="reuse-1" d="M190 18.5c11.75 5 39 9.75 47.25 40.25" class="B"/></defs><style>.B{opacity:.387}.C{fill:#ceeeab}.D{fill-opacity:1}.E{stroke:none}.F{fill:none}.G{stroke-linejoin:round}.H{stroke-linecap:round}.I{stroke:#6d7f42}.J{opacity:.039}.K{fill:#2d3335}</style><defs><linearGradient xlink:href="#As" id="A"><stop offset="0"/><stop offset="1" stop-opacity="0"/></linearGradient><linearGradient xlink:href="#C" id="B" x1="94.25" x2="9" y1="-94.67" y2="-179.97"/><linearGradient xlink:href="#As" id="C"><stop offset="0"/><stop offset="1" stop-opacity="0"/></linearGradient><linearGradient xlink:href="#C" id="D" x1="50.75" x2="35.75" y1="-114.44" y2="-30.44"/><linearGradient xlink:href="#C" id="E" x1="77.63" x2="115.25" y1="-163.13" y2="-74.63"/><linearGradient xlink:href="#C" id="F" x1="56.5" x2="125.72" y1="-50.44" y2="7.06"/><linearGradient xlink:href="#C" id="G" x1="35" x2="180.75" y1="-163.3" y2="-146.8"/><linearGradient xlink:href="#C" id="H" x1="57" x2="179" y1="-141.11" y2="-41.61"/><linearGradient xlink:href="#C" id="I" x1="156" x2="208.25" y1="-26.5" y2="39.75"/><linearGradient xlink:href="#C" id="J" x1="142.75" x2="235" y1="-169.3" y2="-77.3"/><linearGradient xlink:href="#L" id="K" x1="214.25" x2="166.5" y1="-161.36" y2="-113.72"/><linearGradient xlink:href="#As" id="L"><stop offset="0" stop-color="#fff"/><stop offset="1" stop-color="#fff" stop-opacity="0"/></linearGradient><linearGradient xlink:href="#L" id="M" x1="53.25" x2="57.66" y1="-126.5" y2="-62.47"/><linearGradient xlink:href="#L" id="N" x1="39.5" x2="75.72" y1="6.63" y2="-17.13"/><linearGradient xlink:href="#L" id="O" x1="102" x2="85.31" y1="-162.34" y2="-121.44"/><linearGradient xlink:href="#L" id="P" x1="117.75" x2="63.5" y1="-78.09" y2="-14.75"/><linearGradient xlink:href="#L" id="Q" x1="180.69" x2="133.94" y1="-125.13" y2="-60.75"/><linearGradient xlink:href="#L" id="R" x1="170.75" x2="130.22" y1="-23.5" y2="33.38"/><linearGradient xlink:href="#L" id="S" x1="213.5" x2="181.75" y1="-76" y2="-5.66"/><linearGradient xlink:href="#A" id="T" x1="210.17" x2="9" y1="62.06" y2="-223.25"/><linearGradient xlink:href="#As" id="X"><stop offset="0" stop-color="#2d3335"/><stop offset=".5" stop-color="#4c464a"/><stop offset="1" stop-color="#384042"/></linearGradient><linearGradient xlink:href="#As" id="Y" x1="1.54" x2="17.29" y1="242.46" y2="258.21"><stop offset="0" stop-color="#f9e295"/><stop offset=".13" stop-color="#f7dd84"/><stop offset=".21" stop-color="#fff"/><stop offset=".3" stop-color="#f4ce51"/><stop offset=".34" stop-color="#f9e7aa"/><stop offset="1" stop-color="#efbb0e"/></linearGradient><linearGradient xlink:href="#As" id="Z" x1="123" x2="133" y1="150.38" y2="150.38" gradientTransform="rotate(-135 332.79 -39.72) scale(2.78394 -2.46367)"><stop offset="0" stop-color="#2d3335"/><stop offset=".5" stop-color="#4c464a"/><stop offset="1" stop-color="#384042"/></linearGradient><linearGradient xlink:href="#As" id="a" x1="67.48" x2="83.23" y1="176.52" y2="192.27"><stop offset="0" stop-color="#f9e295"/><stop offset=".13" stop-color="#f7dd84"/><stop offset=".21" stop-color="#fff"/><stop offset=".3" stop-color="#f4ce51"/><stop offset=".34" stop-color="#f9e7aa"/><stop offset="1" stop-color="#efbb0e"/></linearGradient><linearGradient xlink:href="#X" id="b" x1="123" x2="133" y1="150.38" y2="150.38" gradientTransform="scale(-1.39197 1.39197) rotate(-45 -28.3 379.34)"/><linearGradient xlink:href="#X" id="c" x1="126.68" x2="120.65" y1="133.07" y2="144.76"/><linearGradient xlink:href="#A" id="e" x1="108" x2="133" y1="167.73" y2="150.38" gradientTransform="rotate(-135 332.79 -39.72) scale(2.78394 -2.46367)"/><linearGradient xlink:href="#As" id="h" x1="126.64" x2="179.96" y1="19.82" y2="127.2"><stop offset="0" stop-color="#fff"/><stop offset="1" stop-color="#fff" stop-opacity="0"/></linearGradient><linearGradient xlink:href="#As" id="i" x1="126.64" x2="179.96" y1="29.82" y2="137.2" gradientTransform="matrix(-.50295 .1984 .1972 -.43254 276.16 123.42)"><stop offset="0" stop-color="#fff"/><stop offset="1" stop-color="#fff" stop-opacity="0"/></linearGradient><linearGradient xlink:href="#As" id="n" x1="210.17" x2="9" y1="264.06" y2="-21.25"><stop offset="0"/><stop offset="1" stop-opacity="0"/></linearGradient><linearGradient xlink:href="#p" id="o" x1="214.25" x2="166.5" y1="-161.36" y2="-113.72"/><linearGradient xlink:href="#As" id="p"><stop offset="0" stop-color="#fff"/><stop offset="1" stop-color="#fff" stop-opacity="0"/></linearGradient><linearGradient xlink:href="#p" id="q" x1="53.25" x2="57.66" y1="-126.5" y2="-62.47"/><linearGradient xlink:href="#p" id="r" x1="39.5" x2="75.72" y1="6.63" y2="-17.13"/><linearGradient xlink:href="#p" id="s" x1="102" x2="85.31" y1="-162.34" y2="-121.44"/><linearGradient xlink:href="#p" id="t" x1="117.75" x2="63.5" y1="-78.09" y2="-14.75"/><linearGradient xlink:href="#p" id="u" x1="180.69" x2="133.94" y1="-125.13" y2="-60.75"/><linearGradient xlink:href="#p" id="v" x1="170.75" x2="130.22" y1="-23.5" y2="33.38"/><linearGradient xlink:href="#p" id="w" x1="213.5" x2="181.75" y1="-76" y2="-5.66"/><linearGradient xlink:href="#y" id="x" x1="94.25" x2="9" y1="-94.67" y2="-179.97"/><linearGradient xlink:href="#As" id="y"><stop offset="0"/><stop offset="1" stop-opacity="0"/></linearGradient><linearGradient xlink:href="#y" id="z" x1="50.75" x2="35.75" y1="-114.44" y2="-30.44"/><linearGradient xlink:href="#y" id="AA" x1="77.63" x2="115.25" y1="-163.13" y2="-74.63"/><linearGradient xlink:href="#y" id="AB" x1="56.5" x2="125.72" y1="-50.44" y2="7.06"/><linearGradient xlink:href="#y" id="AC" x1="35" x2="180.75" y1="-163.3" y2="-146.8"/><linearGradient xlink:href="#y" id="AD" x1="57" x2="179" y1="-141.11" y2="-41.61"/><linearGradient xlink:href="#y" id="AE" x1="156" x2="208.25" y1="-26.5" y2="39.75"/><linearGradient xlink:href="#y" id="AF" x1="142.75" x2="235" y1="-169.3" y2="-77.3"/><linearGradient xlink:href="#As" id="AK" x1="122" x2="122" y1="245.45" y2="4.3"><stop offset="0"/><stop offset="1" stop-opacity="0"/></linearGradient><linearGradient xlink:href="#As" id="AM" x1="210.17" x2="9" y1="258.12" y2="-10.93"><stop offset="0"/><stop offset="1" stop-opacity="0"/></linearGradient><linearGradient id="As" gradientUnits="userSpaceOnUse"/><path id="AN" d="M174.28 35.88c-17.6 0-35.2 6.63-48.72 19.9l-.5.47a69.66 69.66 0 0 0-12.47 81.5l-2.28 1.63a72.07 72.07 0 0 0 8.1 12.12l-13.32 13.34a21.13 21.13 0 0 0-4.56-1.37l-2.84 2.84a9.47 9.47 0 0 0-3.06-.87L30.5 229.56a8.2 8.2 0 0 0 .66 3.28l-.54.53-1.09 1.1c.72 3.74 2.01 6.82 5.47 10.28s6.42 4.63 10.28 5.47l1.1-1.1.71-.71a9.8 9.8 0 0 0 3.1.84l64.12-64.13c-.24-.97-.62-1.93-1.03-2.9l3-3a16.8 16.8 0 0 0-1.31-4.6l13.28-13.28a72.07 72.07 0 0 0 12.13 8.1l1.62-2.28a69.66 69.66 0 0 0 81.5-12.47c.17-.17.3-.34.47-.5a69.6 69.6 0 0 0-49.69-118.31zm-.5 3.28h.31c.95.01 1.9.06 2.85.12a65.85 65.85 0 0 1 2.87.25l.28.03.28.03.44.07a49.98 49.98 0 0 1 4.53.71l1.04.2c.72.15 1.43.32 2.15.5l.94.21.22.07c.95.25 1.9.51 2.84.8l.22.07a67.71 67.71 0 0 1 2.85.97l.15.06c.96.36 1.9.73 2.85 1.13l.15.06c.94.4 1.89.84 2.81 1.28l.13.07c.93.45 1.86.9 2.78 1.4.03.02.06.05.1.06.92.5 1.84 1.02 2.74 1.57l.1.06a68.23 68.23 0 0 1 2.69 1.72c.55.37 1.08.77 1.62 1.16l1.1.78.06.03c.88.65 1.74 1.36 2.6 2.06a70.63 70.63 0 0 1 5.06 4.6 70.62 70.62 0 0 1 4.56 5.03l.03.03c.7.85 1.4 1.71 2.06 2.59.29.38.54.77.82 1.16l1.09 1.56.06.06c.6.9 1.17 1.78 1.72 2.69l.06.1c.55.9 1.07 1.82 1.57 2.74l.06.1c.5.92.95 1.84 1.4 2.78l.07.12c.45.93.88 1.87 1.28 2.82l.06.15A67.98 67.98 0 0 1 236.5 84l.06.16c.35.94.67 1.88.97 2.84l.06.22c.3.94.57 1.9.82 2.84l.06.22.22.94.5 2.16.19 1.03.34 1.84c.15.9.27 1.8.38 2.69l.06.44.03.28.03.28a66.08 66.08 0 0 1 .38 5.72v.31a66.4 66.4 0 0 1-.19 5.94l-.03.37c-.08.92-.17 1.84-.28 2.75a65.2 65.2 0 0 1-.44 2.88l-.03.25-.06.37c-.17.91-.36 1.82-.56 2.72l-.1.4c-.2.9-.44 1.78-.69 2.66-.16.6-.35 1.17-.53 1.75l-.53 1.7a63.25 63.25 0 0 1-.93 2.56l-.2.46c-.04.12-.07.24-.12.35a62.9 62.9 0 0 1-1.12 2.6 63.45 63.45 0 0 1-1.19 2.43l-.25.47-1.29 2.37-.28.5-.62 1c-.37.6-.75 1.17-1.13 1.75v.03c-.49.75-1 1.49-1.53 2.22-.46.64-.95 1.25-1.44 1.88-.2.25-.36.52-.56.78l-.4.5-.5.59a67.23 67.23 0 0 1-3.6 3.97c-.16.16-.3.34-.47.5-21.13 21.13-52.26 24.5-77.19 11.15l.13-.18a65.48 65.48 0 0 1-10.63-6.78l-1.59-1.32-1.53-1.3-.28-.26a86.84 86.84 0 0 1-4.72-4.72l-.25-.28c-.45-.5-.88-1.01-1.31-1.53l-1.31-1.6a65.41 65.41 0 0 1-6.79-10.62l-.18.13c-13.34-24.93-9.98-56.06 11.15-77.19.17-.16.34-.3.5-.47a68.23 68.23 0 0 1 2-1.87c.65-.6 1.3-1.17 1.97-1.72l.82-.69c.34-.28.71-.51 1.06-.78.62-.48 1.24-.98 1.87-1.44a65.36 65.36 0 0 1 2.25-1.53l1.75-1.12 1.35-.82c.68-.39 1.37-.75 2.06-1.12l.53-.28c.95-.5 1.88-.97 2.85-1.4a62.89 62.89 0 0 1 2.59-1.13l.47-.16c.97-.38 1.92-.76 2.9-1.1l1.7-.52 1.74-.53a63.5 63.5 0 0 1 2.66-.7c.07 0 .15 0 .22-.02l1.25-.28 2.03-.4.25-.04a63.7 63.7 0 0 1 2.87-.44 64.69 64.69 0 0 1 5.91-.47 65.09 65.09 0 0 1 3.16-.03z"/><path id="AO" d="m110.75 5.5-4.25 7c-.75 9-2.25 13.75-8.5 16.5s-12.25 3.5-11 7.5 13 9.25 14.25 13 8.25 1.75 11 7 2 15.25-3.75 17.25-17.5.5-20.25 9.5-4.75 10.5-9 12.75-7.25 10.5-3.5 16.5 12.25-1.25 15-6.5S98 97.25 98 97.25h23.75l59-1.75 3.25-3.75s3.25 4 2.75 8.75-3.75 14.75.25 17.25 19.5-2 24-7-4.75-28.25-10.5-29.5-18.5-1.75-17-7 11.75 4.5 17.25 3.25 16.75-21 12-25.25-24.25-5.25-25.75-8 21-8 22.25-11-2.5-7.25-6.25-8.5S189 41 182 40.5s-20 5.75-17.25 11.5-6 11-14.5 6.5-24.75-13-21.75-24S150 15.75 150 15.75L110.75 5.5zM97.19 112.72c-1.6.14-4.47 4.69-4.94 7.03-.5 2.5-3.25 6.75-3.5 12.25s4.75 6.75 8.75 6.5 2.75-6.75 2-15c-.25 0-.5-10.25-2-10.75a.79.79 0 0 0-.31-.03zm92.72 51.65c-6.34.3-6.63 7.47-7.4 8.88-1.26 2.25 2.24 13.75 2 18s-4.76 5.25-9.5 9.75.5 16 11.24 31l44.75 1.25-1-35s4.75-4.25-20.75-24.25c-9.56-7.5-15.54-9.8-19.34-9.63zM39.94 180.91c-4.03-.1-8.28 5.72-9.69 7.59-1.5 2-6.25 5-17 9.5l-14.5 34.25 53 4.25s1.75-11-4.25-15.75S30.25 215 29.25 207.5s9.25-10 13.75-14.25S45 182 40.75 181a4.07 4.07 0 0 0-.81-.1z"/><path id="AP" d="M122.75 62.25c6.25.5 12.25-2.25 10.75-6.5s-12.5-7.25-13.25-3 2 10.5 2.5 9.5z"/><path id="AQ" d="M108.75 46.75c-8.5-5.5-8.5-7.25-7-8s10.25 5 12.75 8-2.25 2-5.75 0z"/><path id="AR" d="M15.75 151.25c33-2.5 38.25-3.5 36.25-10.25s-8.75-23.5-23-22.5-22.75-6.75-22.75-6.75"/><path id="AS" d="M17.5 177.25c18.25-10 28.75-8.5 35-11.5s13.25-5.75 15.75-9.5 5.75-11.5 5.75-18-3.5-36 3.25-43.5 17.25-26 26-23.25 12.25 9.75 22 9.5S147 77 149.5 68.75s-15.75-16-16-23 5.5-14.25 20.25-17 23.5-11.5 23.5-11.5"/><path id="AT" d="M14.5 161c15.25-1.5 22.25 3.5 31.5 1.75s13.25-3 17.75-5.75 6-3.75 6.25-6.5 1-12.5-3-22S54.5 97 58.75 89.75 64 68.25 74.5 65.25 95.5 59 102.25 64s12.75 14.25 20 14.5S134 77 136.75 74s4.5-10.25 1.75-13.75-15.5-5.5-17.25-9.5-10.75-17-.25-26.75 36.25-8.25 36.25-8.25"/><path id="AU" d="M21.25 159c13.75 1 21.5 4.25 33.5-.5s13.5-5.25 13.75-8.75-.25-15.75-3-20-13-13.75-15.75-24.25.25-41 8.5-48.25 32-7.25 37.5-10.5 5.25-16.75 13-24.5 27-12.25 27-12.25"/><path id="AV" d="M9.75 214c19-12.5 36-1.25 49-4s38.25-37.25 46-37 5.5-11.75 8.5-13.25 5.5 6 11.75 8 24.5-2.75 23.5-5.75-7-7.75-5.5-8.5 8.5 5 12.75 3.5 43.75-1 48.5-13.5 21.5-13.5 21.5-13.5"/><path id="AW" d="M77.5 233.5c13.5-11.5 23.25-25 28.5-27s12.75-3.75 15.75-8 2.5-10.75 5.25-12 3.75 5.75 8.75 6 36.75-5 42.75-11.75 32.25-12.5 32.5-14.5-1-4.75.25-5.5 24.75-6 24.75-6"/><path id="AX" d="M168.75 236c9-13.75 20.5-41 29.5-42s10.25-2.5 12.5-4.25 17 2.25 17 2.25"/><path id="AY" d="m57.75 20-8.5 28.25 18 6.25L75 90.75 54 113l9 10.5L51 135l.5 4.5L71.75 164l14-6.75 20.5 18.5L95.75 204l10.25 8.5-2.75 13"/><path id="AZ" d="m105.75 212.25 12.5-27.75 11-7 27.5 15.75 20.5-3.75-.25-15.75-10.25-6 12.75-26.25 5.75-3.75 38.75-10"/><path id="Aa" d="M219.25-182s-24.25 9-31.75 10.5-21 5.25-21 5.25c4.92-1.36 11.44 45.4 14.25 52.25l-.06.28c11.8-4.07 51.2-4.77 54.31-12.78 0 0-4.75-15.25-7.5-29.75S219.25-182 219.25-182z"/><path id="Ab" d="M27-126.5s-5.5 12.75-8.25 24.75-5.75 23-5.75 23l50.63 16.28 15.78-58.9L27-126.5z"/><path id="Ac" d="M26-24.5S22-14.25 18.5-.25s-5 30.75-5 30.75l.44-.1c2.03-.33 11.22-1.5 28.06 1.35 19.25 3.25 32.25 6 32.25 6l1.47-52.5-.75.13L26-24.5z"/><path id="Ad" d="M114.75-180.25s-3.25 3.5-22 8-27.5 5.75-27.5 5.75c5.18 14.7 12.03 29.27 14.25 44.75l-.1.31 48.04-3.93 1.12.25c-3.36-13.33-7.8-54.6-13.81-55.13z"/><path id="Ae" d="M117.6-78.1 63.96-62.37l-.34-.09-.13.47 12.25 46.5-.03.75 49.47-8.88.53.2.03-.07-8.25-54.25.1-.34z"/><path id="Af" d="m128.56-125.13.7 2.38-11.67 44.66.1-.03 51.81 17.37 11.19-52.97-1 .38-51.13-11.78z"/><path id="Ag" d="M125.53-23.5 114.5 25s5.5.5 22.5 6.25l6.13 2.03 5.62 1.72c10.62 3.2 17.5 4.75 17.5 4.75l12.72-45.4-1.53.56-51.9-18.41z"/><path id="Ah" d="M218-76c-15.67 6.29-31.7 11.15-48.06 15.4l-.44-.15 9.5 55-.03.1a908.7 908.7 0 0 0 52.78-20.85s-.5-4.5-3.75-19.75S218-76 218-76z"/><path id="Ai" d="M13.72-179.97c-1.1 0-1.97.03-2.72.06l-1.16.07h-.09l-.75.1s7.5 13 11.75 27.74S27-126.5 27-126.5l51.47 5.13.94-.07.1-.3c-2.23-15.49-9.08-30.05-14.26-44.76 0 0-18.5-9-31.5-11.5l-3-.53-1.75-.28-.69-.1c-1.3-.18-2.58-.34-3.8-.46l-2.1-.2-2-.15-2.78-.15c-1.46-.07-2.77-.1-3.9-.1z"/><path id="Aj" d="M13-78.75s5.75 16 9.25 30S26-24.5 26-24.5l48.97 9.88.75-.13.03-.75L63.5-62l.13-.47L13-78.75z"/><path id="Ak" d="m127.44-125.38-47.97 4h-.06L63.63-62.47l.34.1 53.62-15.72 11.66-44.66c-.22-.63-.45-1.45-.69-2.38l-1.12-.25z"/><path id="Al" d="m125.19-23.63-49.47 8.88-1.47 52.5S87 35 98.25 31.5 114.5 25 114.5 25l11.22-48.44-.53-.18z"/><path id="Am" d="M114.75-180.25c6.02.53 10.45 41.8 13.81 55.13l51.13 11.78c.3-.13.64-.26 1-.38l.06-.28c-2.81-6.86-9.33-53.6-14.25-52.25l-1.72-.72a349.6 349.6 0 0 0-20.28-7.78c-12.25-4.25-29.75-5.5-29.75-5.5z"/><path id="An" d="m117.69-78.13-.1.04-.09.34 8.25 53.25-.22 1 51.9 18.4 1.54-.56.03-.09-9.5-55-51.81-17.38z"/><path id="Ao" d="M231.75-26.5a908.7 908.7 0 0 1-52.78 20.84l-12.72 45.41 26-5.75c13-3 26.5-8 26.5-8S218 21 223 1.5s8.75-28 8.75-28z"/><path id="Ap" d="M235-126.5c-3.1 8.01-42.5 8.7-54.31 12.78L169.5-60.75l.44.16C186.3-64.85 202.34-69.71 218-76c0 0 1.75-10.5 6.75-23.75L235-126.5z"/><path id="Ar" d="M127.03 132.72a66.81 66.81 0 1 0 94.5-94.5 66.81 66.81 0 0 0-94.5 94.5z"/><clipPath id="U"><use xlink:href="#reuse-0" class="C D E"/></clipPath><clipPath id="V"><use xlink:href="#reuse-0" class="C D E"/></clipPath><clipPath id="W"><use xlink:href="#reuse-0" class="C D E"/></clipPath><clipPath id="k"><use xlink:href="#reuse-0" class="C D E"/></clipPath><clipPath id="l"><use xlink:href="#reuse-0" class="C D E"/></clipPath><clipPath id="m"><use xlink:href="#reuse-0" class="C D E"/></clipPath><clipPath id="AG"><path fill="url(#AH)" d="M123.62 141.06c20.84 20.25 54.61 19.3 75.44-2.13s20.83-55.2 0-75.44-54.6-19.29-75.44 2.13-20.83 55.2 0 75.44z" class="D E"/></clipPath><clipPath id="AL"><path fill="url(#AM)" d="M9 22.58s7.5 12.4 11.75 26.8 6.25 25 6.25 25-5.5 13.19-8.25 25.41S13 123.25 13 123.25s5.75 15.54 9.25 29.26S26 176.45 26 176.45s-4 10.58-7.5 24.86-5 31.15-5 31.15 9.25-2.74 28.5-1.05 32.25 3.4 32.25 3.4 12.75-3.79 24-8.2 16.25-7.81 16.25-7.81 5.5.05 22.5 4.43 29.25 6.13 29.25 6.13l26-7.85c13-4.05 26.5-10.15 26.5-10.15s-.75-4.94 4.25-24.84 8.75-28.7 8.75-28.7-.51-4.46-3.75-19.45c-1.75-8.11-2.25-4.07-2.25-4.07s16.26-26.16 16.5-40.34c.25-15.02-7.25-36.41-7.25-36.41s-4.75-14.87-7.5-29.14-8.25-25.09-8.25-25.09S195 14.28 187.5 16.4s-21 6.95-21 6.95-9.75-3.46-22-6.72-29.75-3.1-29.75-3.1-3.25 3.77-22 9.78-27.5 7.98-27.5 7.98-18.5-7.5-31.5-8.95-24-.06-24.75.25z" class="D E J"/></clipPath><radialGradient xlink:href="#As" id="d" cx="128" cy="86" r="47" fx="128" fy="86" gradientTransform="scale(1.42159 -1.42159) rotate(-45 -51.1 19.46)"><stop offset="0" stop-color="#d0e9f2" stop-opacity="0"/><stop offset=".84" stop-color="#d0e9f2" stop-opacity="0"/><stop offset=".94" stop-color="#d0e9f2" stop-opacity=".28"/><stop offset="1" stop-color="#d0e9f2"/></radialGradient><radialGradient xlink:href="#As" id="f" cx="159.61" cy="72.59" r="38.42" fx="159.61" fy="72.59" gradientTransform="matrix(1.21248 0 0 .83915 -46.35 24.53)"><stop offset="0" stop-color="#fff"/><stop offset=".5" stop-color="#fff" stop-opacity=".93"/><stop offset="1" stop-color="#fff" stop-opacity="0"/></radialGradient><radialGradient xlink:href="#As" id="g" cx="159.61" cy="72.59" r="38.42" fx="159.61" fy="72.59" gradientTransform="matrix(1.21248 0 0 .83915 -45.92 25.81)"><stop offset="0" stop-color="#fff"/><stop offset="1" stop-color="#fff" stop-opacity="0"/></radialGradient><radialGradient xlink:href="#As" id="AH" cx="128" cy="86" r="47" fx="128" fy="86" gradientTransform="matrix(.80254 .77986 .80254 -.82522 -10.4 73.42)"><stop offset="0" stop-color="#d0e9f2" stop-opacity="0"/><stop offset=".84" stop-color="#d0e9f2" stop-opacity="0"/><stop offset=".94" stop-color="#d0e9f2" stop-opacity=".28"/><stop offset="1" stop-color="#d0e9f2"/></radialGradient><filter id="j" width="1.1" height="1.1" x="-.05" y="-.05"><feGaussianBlur stdDeviation="4.29"/></filter><filter id="AI" width="1.14" height="1.14" x="-.07" y="-.07"><feGaussianBlur stdDeviation="6.31"/></filter><filter id="AJ" width="1.09" height="1.1" x="-.05" y="-.05"><feGaussianBlur stdDeviation="4.46"/></filter><use xlink:href="#reuse-0" id="Aq"/></defs><g transform="translate(0 -10)"><use xlink:href="#AN" class="K" filter="url(#AI)" opacity=".7" transform="matrix(1 .06864 0 .8487 0 36.91)"/><path fill="url(#AK)" d="M9 17.25s7.5 11 11.75 25.75S27 68.5 27 68.5s-5.5 12.75-8.25 24.75l-5.75 25s5.75 16 9.25 30S26 170.5 26 170.5s-4 10.25-7.5 24.25-5 30.75-5 30.75 9.25-2 28.5 1.25 32.25 6 32.25 6 12.75-2.75 24-6.25 16.25-6.5 16.25-6.5 5.5.5 22.5 6.25 29.25 8.5 29.25 8.5l26-5.75c13-3 26.5-8 26.5-8s-.75-5 4.25-24.5 8.75-28 8.75-28L228 150.75C224.75 135.5 218 121 218 121s1.75-12.5 6.75-25.75L235 68.5s-4.75-15.25-7.5-29.75S219.25 15 219.25 15 195 24 187.5 25.5s-21 5.25-21 5.25-9.75-4.25-22-8.5-29.75-5.5-29.75-5.5-3.25 3.5-22 8-27.5 5.75-27.5 5.75-18.5-9-31.5-11.5-24-2-24.75-1.75z" filter="url(#AJ)" opacity=".5" transform="matrix(1 0 0 .84657 0 37.66)"/></g><path d="M9 2.25s7.5 13 11.75 27.75S27 55.5 27 55.5s-5.5 12.75-8.25 24.75-5.75 23-5.75 23 5.75 16 9.25 30S26 157.5 26 157.5s-4 10.25-7.5 24.25-5 30.75-5 30.75 9.25-2 28.5 1.25 32.25 6 32.25 6 12.75-2.75 24-6.25 16.25-6.5 16.25-6.5 5.5.5 22.5 6.25 29.25 8.5 29.25 8.5l26-5.75c13-3 26.5-8 26.5-8s-.75-5 4.25-24.5 8.75-28 8.75-28-.5-4.5-3.75-19.75S218 106 218 106s1.75-10.5 6.75-23.75L235 55.5s-4.75-15.25-7.5-29.75S219.25 0 219.25 0 195 9 187.5 10.5s-21 5.25-21 5.25-9.75-4.25-22-8.5-29.75-5.5-29.75-5.5-3.25 3.5-22 8-27.5 5.75-27.5 5.75-18.5-9-31.5-11.5S9.75 2 9 2.25z" class="C"/><g clip-path="url(#W)" transform="translate(0 -10)"><use xlink:href="#AO" fill="#a6dd8b"/></g><path fill="#aac3e7" d="M158.53 75.34c-4.76-.01-9.03.97-11.53 3.16-8 7-35 .75-48.5 7s-13.25 38-14.75 44.5-17.5 20.75-20 23.5-13.25 7.25-19.5 8.5-12.75 7.25-15.5 11c-2.02 2.76-7.4 6.45-10.13 8.22l-.12.53-.38 1.63c4.98-1.61 11.18-8.18 16.63-13.63 6.25-6.25 20-7.75 27.75-11.5S76.75 138.5 89 134.5s21.25 11.75 24.25 18.5 1.75 12.75 3.75 17 11 11.75 11.5 13.5-5 6.5-6.25 8.5-10.5 7-11.75 8.75c-.97 1.35-1.92 6.77-2.31 9.22l1.12-.47c.49-2.53 1.52-7.08 2.94-8.5 2-2 11.25-4.5 12.5-8.5s7-6.5 7-6.5 2.75 4 16 14c8.83 6.67 12.76 15.53 14.4 20.72l2.04.53c-1.22-4.32-4.84-16.24-8.94-20.75-5-5.5-18.5-10.75-22.75-22S108 144.25 115 138.25s16.5-4 28.5 7.5 46.25 5.75 57.75 3.75c9.96-1.73 20.83 14.88 23.9 26.03l1.66-5.75a30.86 30.86 0 0 1-5.31-8.28c-3.75-8.5-12-13.25-12-13.25s8.75-5 14.75-7.75c1.62-.74 3-1.68 4.19-2.66l-.44-2.09-.1-.44c-4.76 5.56-19.23 9.62-21.65 10.94-2.75 1.5-18.25 3-35.75 4.5s-26.75-7.5-34.25-14.75-13-36-3-38 20 13.75 30 17 21.5-15.75 19.75-27c-1.2-7.73-14-12.62-24.47-12.66zM105.2 88.62c1.27 0 5.86 1.6 6.56 2.38 2.25 2.5 2 7.25 0 8s-12.75 8-10.5 14.25 1.75 18-3.5 18-8 0-10-2.5-2-12 0-19.75 3.5-15 8-18.25c3.1-2.23 6.63-2.13 9.44-2.13zm13.6 73.1c.2.01 1.9 3.51 4.71 7.03 3 3.75 3.25 8.25 3.25 8.25s-4.25-4.75-6-8-2-7.25-2-7.25c0-.03.02-.03.03-.03z"/><g class="F G I"><use xlink:href="#AP" class="B"/><use xlink:href="#AQ" class="B"/></g><g class="F"><g class="I" clip-path="url(#U)" transform="translate(0 -10)"><use xlink:href="#AR" class="B G H"/><use xlink:href="#AS" class="B"/><g class="G H"><use xlink:href="#AT" class="B"/><use xlink:href="#AU" class="B"/><use xlink:href="#reuse-1" class="B"/><use xlink:href="#AV" class="B"/><use xlink:href="#AW" class="B"/><use xlink:href="#AX" class="B"/></g></g><g stroke="#d38484" stroke-width="2" class="H" clip-path="url(#V)" transform="translate(0 -10)"><use xlink:href="#AY"/><use xlink:href="#AZ"/></g></g><path fill="url(#T)" d="M9-189.75s7.5 13 11.75 27.75S27-136.5 27-136.5s-5.5 12.75-8.25 24.75-5.75 23-5.75 23 5.75 16 9.25 30S26-34.5 26-34.5s-4 10.25-7.5 24.25-5 30.75-5 30.75 9.25-2 28.5 1.25 32.25 6 32.25 6S87 25 98.25 21.5 114.5 15 114.5 15s5.5.5 22.5 6.25 29.25 8.5 29.25 8.5l26-5.75c13-3 26.5-8 26.5-8S218 11 223-8.5s8.75-28 8.75-28-.5-4.5-3.75-19.75S218-86 218-86s1.75-10.5 6.75-23.75L235-136.5s-4.75-15.25-7.5-29.75-8.25-25.75-8.25-25.75-24.25 9-31.75 10.5-21 5.25-21 5.25-9.75-4.25-22-8.5-29.75-5.5-29.75-5.5-3.25 3.5-22 8-27.5 5.75-27.5 5.75-18.5-9-31.5-11.5-24-2-24.75-1.75z" class="J" transform="translate(0 192)"/><g opacity=".27" transform="translate(0 182)"><use xlink:href="#Aa" fill="url(#K)"/><use xlink:href="#Ab" fill="url(#M)"/><use xlink:href="#Ac" fill="url(#N)"/><use xlink:href="#Ad" fill="url(#O)"/><use xlink:href="#Ae" fill="url(#P)"/><use xlink:href="#Af" fill="url(#Q)"/><use xlink:href="#Ag" fill="url(#R)"/><use xlink:href="#Ah" fill="url(#S)"/></g><g opacity=".04" transform="translate(0 182)"><use xlink:href="#Ai" fill="url(#B)"/><use xlink:href="#Aj" fill="url(#D)"/><use xlink:href="#Ak" fill="url(#E)"/><use xlink:href="#Al" fill="url(#F)"/><use xlink:href="#Am" fill="url(#G)"/><use xlink:href="#An" fill="url(#H)"/><use xlink:href="#Ao" fill="url(#I)"/><use xlink:href="#Ap" fill="url(#J)"/></g><g clip-path="url(#AG)" transform="matrix(1.25254 .0354 0 1.25254 -27.8 -48.34)"><use xlink:href="#Aq" class="C"/><g clip-path="url(#k)"><use xlink:href="#AO" fill="#a6dd8b"/></g><path fill="#aac3e7" d="M158.53 85.34c-4.76-.01-9.03.97-11.53 3.16-8 7-35 .75-48.5 7s-13.25 38-14.75 44.5-17.5 20.75-20 23.5-13.25 7.25-19.5 8.5-12.75 7.25-15.5 11c-2.02 2.76-7.4 6.45-10.13 8.22l-.12.53-.38 1.63c4.98-1.61 11.18-8.18 16.63-13.63 6.25-6.25 20-7.75 27.75-11.5S76.75 148.5 89 144.5s21.25 11.75 24.25 18.5 1.75 12.75 3.75 17 11 11.75 11.5 13.5-5 6.5-6.25 8.5-10.5 7-11.75 8.75c-.97 1.35-1.92 6.77-2.31 9.22l1.12-.47c.49-2.53 1.52-7.08 2.94-8.5 2-2 11.25-4.5 12.5-8.5s7-6.5 7-6.5 2.75 4 16 14c8.83 6.67 12.76 15.53 14.4 20.72l2.04.53c-1.22-4.32-4.84-16.24-8.94-20.75-5-5.5-18.5-10.75-22.75-22S108 154.25 115 148.25s16.5-4 28.5 7.5 46.25 5.75 57.75 3.75c9.96-1.73 20.83 14.88 23.9 26.03l1.66-5.75a30.86 30.86 0 0 1-5.31-8.28c-3.75-8.5-12-13.25-12-13.25s8.75-5 14.75-7.75c1.62-.74 3-1.68 4.19-2.66l-.44-2.09-.1-.44c-4.76 5.56-19.23 9.62-21.65 10.94-2.75 1.5-18.25 3-35.75 4.5s-26.75-7.5-34.25-14.75-13-36-3-38 20 13.75 30 17 21.5-15.75 19.75-27c-1.2-7.73-14-12.62-24.47-12.66zM105.2 98.62c1.27 0 5.86 1.6 6.56 2.38 2.25 2.5 2 7.25 0 8s-12.75 8-10.5 14.25 1.75 18-3.5 18-8 0-10-2.5-2-12 0-19.75 3.5-15 8-18.25c3.1-2.23 6.63-2.13 9.44-2.13zm13.6 73.1c.2.01 1.9 3.51 4.71 7.03 3 3.75 3.25 8.25 3.25 8.25s-4.25-4.75-6-8-2-7.25-2-7.25c0-.03.02-.03.03-.03z"/><g class="F G I"><path d="M122.75 72.25c6.25.5 12.25-2.25 10.75-6.5s-12.5-7.25-13.25-3 2 10.5 2.5 9.5zm-14-15.5c-8.5-5.5-8.5-7.25-7-8s10.25 5 12.75 8-2.25 2-5.75 0z" class="B"/></g><g class="F I" clip-path="url(#l)"><use xlink:href="#AR" class="B G H"/><use xlink:href="#AS" class="B"/><g class="G H"><use xlink:href="#AT" class="B"/><use xlink:href="#AU" class="B"/><use xlink:href="#reuse-1" class="B"/><use xlink:href="#AV" class="B"/><use xlink:href="#AW" class="B"/><use xlink:href="#AX" class="B"/></g></g><g stroke="#d38484" stroke-width="2" class="F H" clip-path="url(#m)"><use xlink:href="#AY"/><use xlink:href="#AZ"/></g><use xlink:href="#Aq" fill="url(#n)" class="J"/><g opacity=".27" transform="translate(0 192)"><use xlink:href="#Aa" fill="url(#o)"/><use xlink:href="#Ab" fill="url(#q)"/><use xlink:href="#Ac" fill="url(#r)"/><use xlink:href="#Ad" fill="url(#s)"/><use xlink:href="#Ae" fill="url(#t)"/><use xlink:href="#Af" fill="url(#u)"/><use xlink:href="#Ag" fill="url(#v)"/><use xlink:href="#Ah" fill="url(#w)"/></g><g opacity=".04" transform="translate(0 192)"><use xlink:href="#Ai" fill="url(#x)"/><use xlink:href="#Aj" fill="url(#z)"/><use xlink:href="#Ak" fill="url(#AA)"/><use xlink:href="#Al" fill="url(#AB)"/><use xlink:href="#Am" fill="url(#AC)"/><use xlink:href="#An" fill="url(#AD)"/><use xlink:href="#Ao" fill="url(#AE)"/><use xlink:href="#Ap" fill="url(#AF)"/></g></g><use xlink:href="#AN" class="K" clip-path="url(#AL)" filter="url(#j)" transform="matrix(1 .08088 0 1 0 -21.06)"/><path fill="url(#Y)" d="m48.01 227.46-4.8 4.55-15.09-16.13 4.5-4.07a256 256 0 0 1 15.39 15.65z"/><path d="M125.06 134.69a69.6 69.6 0 1 1 98.43-98.43 69.6 69.6 0 0 1-98.43 98.43zm2.96-2.96c26.09 26.1 67.41 27.08 93.5.99s25.11-67.42-.98-93.5-67.41-27.09-93.5-1-25.12 67.42.98 93.51z" class="K"/><path fill="#9eaaac" d="M125.06 134.69a69.6 69.6 0 0 1 0-98.43l.5-.5a69.6 69.6 0 0 0 98.42 98.43l-.49.5a69.6 69.6 0 0 1-98.43 0zm2.46-96.95.5-.5c26.09-26.09 67.41-25.1 93.5.99s27.08 67.41.99 93.5l-.5.5c25.6-26.12 24.46-67.1-1.47-93.02s-66.9-27.06-93.01-1.48z"/><use xlink:href="#Ar" fill="#d0e9f2" fill-opacity=".48"/><use xlink:href="#Ar" fill="url(#d)"/><path fill="url(#c)" d="m116.05 115.28-5.75 4.09a72.66 72.66 0 0 0 30.08 30.08l4.1-5.75a65.29 65.29 0 0 1-28.43-28.42z"/><path fill="url(#b)" d="M124.82 134.93a22.28 22.28 0 0 1 4.12 5.72l-26.2 26.2a21.91 21.91 0 0 1-9.85-9.83l26.2-26.21a22.27 22.27 0 0 1 5.73 4.12z"/><path fill="url(#a)" d="M116.27 159.23 50.2 225.3c-3.99-2.2-5.83-3-9.3-6.46s-4.26-5.3-6.45-9.29l66.07-66.07c5.06 3.75 12.12 10.4 15.75 15.75z"/><path fill="url(#Z)" d="M105.78 154.12c3.46 3.46 7.43 6.66 8.52 11.02l-64.1 64.1c-6.52-5.16-14.56-12.8-19.69-19.69l64.1-64.1c3.5.23 7.66 5.16 11.12 8.62l.05.05z"/><path fill="url(#e)" d="M105.53 154.36c3.46 3.46 7.68 6.42 8.77 10.78l-64.1 64.1a170 170 0 0 1-19.69-19.69l64.1-64.1c3.5.23 7.42 5.46 10.88 8.91h.05z" opacity=".6"/><path fill="url(#h)" d="M131.17 37.05c40.66-32.17 78.13-12.73 77.78 5.3s-56.57 70.36-76.37 66.12-25.45-53.39-1.41-71.42z" opacity=".6"/><path fill="url(#g)" d="M191.06 54.75h-2.75l-2.99.72v2.57l2.97-.74v9.37h-3.2v2.52h9.16v-2.52h-3.19V54.75zm-12.89-.2a5.36 5.36 0 0 0-.85-.06c-1.6 0-2.79.63-3.58 1.88-.8 1.24-1.19 3.11-1.19 5.61 0 2.5.4 4.37 1.19 5.62a3.96 3.96 0 0 0 3.57 1.87c1.6 0 2.8-.63 3.6-1.87s1.18-3.12 1.18-5.62-.4-4.38-1.19-5.63a3.82 3.82 0 0 0-2.73-1.8zm-11.92 0a5.36 5.36 0 0 0-.86-.06c-1.59 0-2.78.63-3.57 1.88-.8 1.24-1.2 3.11-1.2 5.61 0 2.5.4 4.37 1.2 5.62a3.96 3.96 0 0 0 3.58 1.87c1.6 0 2.79-.63 3.58-1.87s1.2-3.11 1.2-5.62c0-2.5-.4-4.38-1.2-5.62a3.83 3.83 0 0 0-2.73-1.8zm11.3 2.38c.55.08.95.48 1.22 1.19.3.8.45 2.09.45 3.86s-.15 3.05-.45 3.86-.8 1.2-1.45 1.2c-.66 0-1.14-.4-1.44-1.2s-.46-2.1-.46-3.86c0-1.77.15-3.06.45-3.86s.79-1.21 1.45-1.21a1.49 1.49 0 0 1 .24.02zm-22.25-2.18h-2.75l-3 .71v2.58l2.98-.74v9.37h-3.2v2.51h9.16v-2.51h-3.19V54.75zm10.34 2.17c.54.1.94.49 1.2 1.2.3.8.46 2.09.46 3.86s-.15 3.05-.46 3.86-.78 1.2-1.45 1.2c-.65 0-1.13-.4-1.44-1.2s-.45-2.1-.45-3.86c0-1.77.15-3.06.45-3.86s.79-1.21 1.44-1.21a1.49 1.49 0 0 1 .24.02zm-22.26-2.17h-2.75l-3 .72v2.57l2.98-.74v9.37h-3.2v2.52h9.16v-2.52h-3.19V54.75zm34.18 6.04a1.35 1.35 0 0 0-.24-.02 1.16 1.16 0 0 0-.86.35 1.17 1.17 0 0 0-.34.86 1.16 1.16 0 0 0 1.2 1.2c.34 0 .62-.12.86-.35s.34-.51.34-.85a1.17 1.17 0 0 0-.34-.86 1.15 1.15 0 0 0-.62-.33zm-47.07-6.24a5.39 5.39 0 0 0-.86-.06c-1.59 0-2.78.62-3.57 1.87-.8 1.25-1.2 3.12-1.2 5.62s.4 4.37 1.2 5.62a3.96 3.96 0 0 0 3.57 1.87c1.6 0 2.8-.63 3.6-1.87s1.18-3.12 1.18-5.62-.4-4.38-1.19-5.63a3.82 3.82 0 0 0-2.73-1.8zm35.15 6.24a1.31 1.31 0 0 0-.25-.02 1.19 1.19 0 0 0-1.19 1.21 1.17 1.17 0 0 0 1.2 1.2 1.17 1.17 0 0 0 .86-.35c.23-.23.34-.52.34-.85a1.17 1.17 0 0 0-.34-.86 1.15 1.15 0 0 0-.62-.33zm-46.1-6.04h-2.75l-3 .71v2.58l2.98-.74v9.37h-3.2v2.51h9.16v-2.51h-3.2V54.75zm10.34 2.17c.54.1.94.49 1.2 1.2.3.8.46 2.09.46 3.86s-.15 3.05-.45 3.86-.8 1.2-1.45 1.2c-.66 0-1.14-.4-1.45-1.2s-.45-2.1-.45-3.86c0-1.77.15-3.06.46-3.87s.78-1.2 1.44-1.2a1.49 1.49 0 0 1 .24.02zm-23.23-2.37a5.34 5.34 0 0 0-.86-.06c-1.59 0-2.78.62-3.57 1.87-.8 1.25-1.2 3.12-1.2 5.62s.4 4.37 1.2 5.62a3.96 3.96 0 0 0 3.57 1.86c1.6 0 2.8-.62 3.59-1.86s1.19-3.12 1.19-5.62-.4-4.38-1.19-5.63a3.83 3.83 0 0 0-2.73-1.8zm-.62 2.37c.55.1.95.49 1.21 1.2.3.8.46 2.09.46 3.86s-.15 3.05-.46 3.86-.78 1.2-1.45 1.2c-.65 0-1.13-.4-1.44-1.2s-.45-2.1-.45-3.86c0-1.77.15-3.06.45-3.87s.79-1.2 1.44-1.2a1.49 1.49 0 0 1 .24.01zm23.85 3.87a1.3 1.3 0 0 0-.24-.02 1.16 1.16 0 0 0-.86.35c-.23.23-.34.52-.34.86a1.17 1.17 0 0 0 .34.86c.24.23.52.34.86.34.34 0 .62-.12.86-.35s.34-.51.34-.85a1.17 1.17 0 0 0-.34-.86 1.15 1.15 0 0 0-.62-.33zm-23.84 0a1.31 1.31 0 0 0-.25-.02c-.33 0-.61.12-.85.35a1.17 1.17 0 0 0-.34.86 1.16 1.16 0 0 0 1.2 1.2 1.17 1.17 0 0 0 .86-.35c.23-.23.34-.52.34-.85a1.17 1.17 0 0 0-.35-.86 1.15 1.15 0 0 0-.61-.33zm85.02 18.71h-2.75l-2.99.72v2.57l2.97-.74v9.37h-3.2v2.52h9.16v-2.52h-3.19V79.5zm-12.89-.2a5.34 5.34 0 0 0-.85-.06c-1.6 0-2.79.62-3.58 1.87-.8 1.25-1.19 3.12-1.19 5.62s.4 4.37 1.19 5.62a3.96 3.96 0 0 0 3.58 1.86c1.6 0 2.79-.62 3.58-1.86s1.2-3.12 1.2-5.62-.4-4.38-1.2-5.63a3.83 3.83 0 0 0-2.73-1.8zm-10.95.2h-2.75l-2.99.71v2.58l2.97-.74v9.37h-3.19v2.52h9.15v-2.52h-3.19V79.5zm10.34 2.17c.54.1.94.49 1.2 1.2.3.8.46 2.09.46 3.86s-.15 3.05-.45 3.86-.8 1.2-1.45 1.2c-.66 0-1.14-.4-1.44-1.2s-.46-2.1-.46-3.86c0-1.77.15-3.06.46-3.87s.78-1.2 1.44-1.2a1.49 1.49 0 0 1 .24.01zm-23.23-2.37a5.39 5.39 0 0 0-.85-.06c-1.6 0-2.79.62-3.58 1.87-.8 1.25-1.19 3.12-1.19 5.62s.4 4.37 1.19 5.62a3.96 3.96 0 0 0 3.58 1.86c1.6 0 2.8-.62 3.58-1.86s1.2-3.12 1.2-5.62-.4-4.38-1.2-5.63a3.82 3.82 0 0 0-2.73-1.8zm-10.95.2h-2.75l-3 .72.01 2.57 2.97-.74v9.37h-3.2v2.52h9.16v-2.52h-3.19V79.5zm10.34 2.17c.54.1.94.49 1.2 1.2.3.8.46 2.09.46 3.86s-.15 3.05-.45 3.86-.8 1.2-1.45 1.2c-.66 0-1.14-.4-1.45-1.2s-.45-2.1-.45-3.86c0-1.77.15-3.06.46-3.87s.78-1.2 1.44-1.2a1.52 1.52 0 0 1 .24.01zm23.84 3.87a1.31 1.31 0 0 0-.24-.02c-.34 0-.62.12-.85.35a1.17 1.17 0 0 0-.35.86 1.17 1.17 0 0 0 .35.86c.23.23.51.34.85.34a1.17 1.17 0 0 0 .86-.35c.23-.23.35-.51.35-.85 0-.34-.12-.63-.35-.86a1.15 1.15 0 0 0-.62-.33zm-46.1-6.04h-2.75l-3 .71.01 2.58 2.97-.74v9.37h-3.2v2.51h9.16v-2.5h-3.19V79.5zm-12.89-.2a5.34 5.34 0 0 0-.85-.06c-1.6 0-2.79.62-3.58 1.87-.8 1.25-1.2 3.12-1.2 5.62s.4 4.37 1.2 5.62a3.96 3.96 0 0 0 3.58 1.86c1.6 0 2.79-.62 3.58-1.86s1.2-3.12 1.2-5.62-.4-4.38-1.2-5.63a3.83 3.83 0 0 0-2.73-1.8zm35.15 6.25a1.35 1.35 0 0 0-.24-.03c-.34 0-.62.12-.85.35a1.17 1.17 0 0 0-.35.86 1.17 1.17 0 0 0 .34.86c.24.23.52.34.85.34a1.17 1.17 0 0 0 .87-.35c.23-.23.34-.51.34-.85a1.17 1.17 0 0 0-.34-.86 1.15 1.15 0 0 0-.62-.33zm-47.07-6.25a5.34 5.34 0 0 0-.86-.06c-1.59 0-2.78.62-3.57 1.87-.8 1.25-1.2 3.12-1.2 5.62s.4 4.37 1.2 5.62a3.96 3.96 0 0 0 3.57 1.86c1.6 0 2.8-.62 3.6-1.86s1.18-3.12 1.18-5.62-.4-4.38-1.19-5.63a3.83 3.83 0 0 0-2.73-1.8zm11.3 2.37c.55.1.95.49 1.21 1.2.3.8.46 2.09.46 3.86s-.15 3.05-.46 3.86-.78 1.2-1.45 1.2c-.65 0-1.13-.4-1.44-1.2s-.45-2.1-.45-3.86c0-1.77.15-3.06.45-3.87s.79-1.2 1.44-1.2a1.49 1.49 0 0 1 .24.01zm-11.91 0c.54.1.94.49 1.2 1.2.3.8.46 2.09.46 3.86s-.15 3.05-.46 3.86-.78 1.2-1.45 1.2c-.65 0-1.14-.4-1.44-1.2s-.45-2.1-.45-3.86c0-1.77.15-3.06.45-3.87s.78-1.2 1.44-1.2a1.52 1.52 0 0 1 .24.01zm11.92 3.87a1.33 1.33 0 0 0-.25-.02c-.33 0-.61.12-.85.35a1.17 1.17 0 0 0-.34.86 1.17 1.17 0 0 0 .34.86c.24.23.52.34.86.34a1.17 1.17 0 0 0 .86-.35c.23-.23.34-.51.34-.85 0-.34-.11-.63-.34-.86a1.14 1.14 0 0 0-.62-.33zm-11.92 0a1.31 1.31 0 0 0-.25-.02c-.33 0-.61.12-.85.35a1.17 1.17 0 0 0-.34.86 1.17 1.17 0 0 0 .34.86c.24.23.52.34.85.34a1.17 1.17 0 0 0 .87-.35c.23-.23.34-.51.34-.85 0-.34-.11-.63-.35-.86a1.14 1.14 0 0 0-.6-.33zm85.02 18.7-2.75.01-2.99.71v2.58l2.97-.74v9.37h-3.19v2.52h9.16v-2.52h-3.2v-11.92zm-11.92 0-2.75.01-2.99.71v2.58l2.97-.74v9.37h-3.2v2.52h9.16v-2.52h-3.19v-11.92zm-12.89-.18a5.39 5.39 0 0 0-.85-.07c-1.6 0-2.79.62-3.58 1.87-.8 1.25-1.19 3.12-1.19 5.62s.4 4.37 1.19 5.62a3.96 3.96 0 0 0 3.58 1.86c1.6 0 2.79-.62 3.58-1.86s1.19-3.12 1.19-5.62-.4-4.38-1.19-5.63a3.82 3.82 0 0 0-2.73-1.8zm-11.92 0a5.36 5.36 0 0 0-.86-.07c-1.59 0-2.78.63-3.57 1.88-.8 1.24-1.2 3.11-1.2 5.61 0 2.5.4 4.37 1.2 5.62a3.96 3.96 0 0 0 3.57 1.87c1.6 0 2.8-.63 3.59-1.87s1.19-3.12 1.19-5.62-.4-4.38-1.19-5.62a3.83 3.83 0 0 0-2.73-1.8zm11.3 2.36c.55.1.95.49 1.22 1.2.3.8.45 2.09.45 3.86s-.15 3.05-.45 3.86-.8 1.2-1.45 1.2c-.66 0-1.14-.4-1.44-1.2s-.46-2.1-.46-3.86c0-1.77.15-3.06.46-3.87s.78-1.2 1.44-1.2l.24.01zm-22.25-2.17h-2.75l-3 .71v2.58l2.98-.74v9.37h-3.2v2.51h9.16v-2.51h-3.19v-11.92zm10.34 2.17c.54.1.94.49 1.2 1.2.3.8.46 2.09.46 3.86s-.15 3.05-.46 3.86-.78 1.2-1.45 1.2c-.65 0-1.13-.4-1.44-1.2s-.45-2.1-.45-3.86c0-1.77.15-3.06.45-3.87s.79-1.2 1.44-1.2a1.49 1.49 0 0 1 .24.01zm-23.23-2.37a5.34 5.34 0 0 0-.86-.06c-1.59 0-2.78.62-3.57 1.87-.8 1.25-1.2 3.12-1.2 5.62s.4 4.37 1.2 5.62a3.96 3.96 0 0 0 3.57 1.86c1.6 0 2.8-.62 3.6-1.86s1.18-3.12 1.18-5.62-.4-4.38-1.19-5.63a3.83 3.83 0 0 0-2.73-1.8zm35.15 6.24a1.35 1.35 0 0 0-.24-.02 1.16 1.16 0 0 0-.86.35c-.23.23-.34.52-.34.86a1.17 1.17 0 0 0 .34.86c.24.23.52.34.86.34.34 0 .62-.12.86-.35s.34-.51.34-.85a1.17 1.17 0 0 0-.34-.86 1.15 1.15 0 0 0-.62-.33zm-47.07-6.24a5.36 5.36 0 0 0-.86-.06c-1.59 0-2.78.62-3.57 1.87-.8 1.25-1.2 3.12-1.2 5.62s.4 4.37 1.2 5.62a3.96 3.96 0 0 0 3.57 1.86c1.6 0 2.8-.62 3.6-1.86s1.18-3.12 1.18-5.62-.4-4.38-1.19-5.63a3.82 3.82 0 0 0-2.73-1.8zm11.3 2.37c.55.1.95.49 1.22 1.2.3.8.45 2.09.45 3.86s-.15 3.05-.46 3.86-.78 1.2-1.45 1.2c-.65 0-1.13-.4-1.44-1.2s-.45-2.1-.45-3.86c0-1.77.15-3.06.45-3.87s.78-1.2 1.44-1.2l.24.01zm23.85 3.87a1.35 1.35 0 0 0-.24-.02 1.16 1.16 0 0 0-.86.35 1.17 1.17 0 0 0-.34.86 1.17 1.17 0 0 0 1.2 1.2 1.17 1.17 0 0 0 .86-.35c.23-.23.34-.51.34-.85a1.17 1.17 0 0 0-.34-.86 1.15 1.15 0 0 0-.62-.33zm-46.1-6.04h-2.75l-3 .71v2.58l2.98-.74v9.37h-3.2v2.51h9.16v-2.5l-3.19-.01v-11.92zm10.34 2.17c.54.1.94.49 1.2 1.2.3.8.46 2.09.46 3.86s-.15 3.05-.45 3.86-.8 1.2-1.45 1.2c-.66 0-1.14-.4-1.45-1.2s-.45-2.1-.45-3.86c0-1.77.15-3.06.46-3.87s.78-1.2 1.44-1.2l.24.01zm11.92 3.87a1.4 1.4 0 0 0-.24-.02c-.34 0-.62.12-.85.35a1.17 1.17 0 0 0-.35.86 1.17 1.17 0 0 0 .35.86c.23.23.51.34.85.34a1.17 1.17 0 0 0 .86-.35c.23-.23.35-.52.35-.85 0-.34-.12-.63-.35-.86a1.14 1.14 0 0 0-.62-.33zm-11.92 0a1.4 1.4 0 0 0-.24-.02c-.34 0-.62.12-.86.35a1.17 1.17 0 0 0-.34.86 1.17 1.17 0 0 0 .34.86c.24.23.52.34.86.34.34 0 .62-.12.86-.35s.34-.52.34-.85c0-.34-.11-.63-.34-.86a1.15 1.15 0 0 0-.62-.33z" opacity=".46" transform="rotate(351.1)"/><path fill="url(#f)" d="M190.63 53.46h-2.75l-2.99.72v2.57l2.97-.73v9.37h-3.2v2.51h9.16v-2.52h-3.19V53.47zm-12.89-.2a5.34 5.34 0 0 0-.85-.06c-1.6 0-2.79.63-3.58 1.88-.8 1.24-1.19 3.12-1.19 5.62 0 2.49.4 4.36 1.19 5.61a3.96 3.96 0 0 0 3.58 1.87c1.6 0 2.8-.62 3.58-1.87s1.2-3.11 1.2-5.61c0-2.51-.4-4.39-1.2-5.63a3.83 3.83 0 0 0-2.73-1.8zm-11.92 0a5.33 5.33 0 0 0-.85-.06c-1.6 0-2.79.63-3.58 1.88-.8 1.24-1.19 3.11-1.19 5.62 0 2.49.4 4.36 1.2 5.61a3.96 3.96 0 0 0 3.57 1.87c1.6 0 2.8-.63 3.58-1.87s1.2-3.11 1.2-5.62c0-2.5-.4-4.38-1.2-5.62a3.83 3.83 0 0 0-2.73-1.8zm11.3 2.38c.55.09.95.48 1.22 1.19.3.8.45 2.1.45 3.86 0 1.77-.15 3.06-.45 3.86s-.79 1.21-1.45 1.21c-.66 0-1.14-.4-1.44-1.2s-.46-2.1-.46-3.87.15-3.06.46-3.86.78-1.21 1.44-1.21c.08 0 .16 0 .24.02zm-22.25-2.18h-2.75l-2.99.72v2.57l2.97-.73v9.36h-3.2v2.52h9.16v-2.51h-3.19V53.47zm10.34 2.18c.54.09.94.48 1.2 1.19.3.8.46 2.1.46 3.86 0 1.77-.15 3.06-.45 3.86s-.8 1.21-1.45 1.21c-.66 0-1.14-.4-1.44-1.2s-.46-2.1-.46-3.87.15-3.06.46-3.86.78-1.21 1.44-1.21c.08 0 .16 0 .24.02zm-22.26-2.18h-2.75l-2.99.72v2.57l2.97-.73v9.37h-3.2v2.51h9.16v-2.5h-3.19V53.46zm34.18 6.05a1.31 1.31 0 0 0-.24-.02 1.17 1.17 0 0 0-1.2 1.2 1.17 1.17 0 0 0 .35.87c.23.22.51.33.85.33a1.17 1.17 0 0 0 .86-.35c.23-.23.35-.51.35-.85 0-.34-.12-.62-.35-.86a1.15 1.15 0 0 0-.62-.32zm-47.07-6.24a5.36 5.36 0 0 0-.85-.07c-1.6 0-2.79.63-3.58 1.88-.8 1.24-1.19 3.11-1.19 5.61 0 2.5.4 4.37 1.19 5.62a3.96 3.96 0 0 0 3.58 1.87c1.6 0 2.79-.62 3.58-1.87s1.2-3.11 1.2-5.61c0-2.51-.4-4.39-1.2-5.63a3.82 3.82 0 0 0-2.73-1.8zm35.15 6.24a1.37 1.37 0 0 0-.24-.02c-.34 0-.62.11-.85.34a1.17 1.17 0 0 0-.35.86 1.17 1.17 0 0 0 .35.87c.23.22.51.33.85.33a1.17 1.17 0 0 0 .86-.34 1.15 1.15 0 0 0 .35-.85 1.17 1.17 0 0 0-.35-.86 1.14 1.14 0 0 0-.62-.33zm-46.1-6.05h-2.75l-2.99.72v2.57l2.97-.73v9.36h-3.2v2.52h9.16v-2.52h-3.19V53.46zm10.34 2.18c.54.09.94.48 1.2 1.19.3.8.46 2.1.46 3.87 0 1.76-.15 3.05-.45 3.85s-.8 1.21-1.45 1.21c-.66 0-1.14-.4-1.44-1.2s-.46-2.1-.46-3.86c0-1.78.15-3.07.46-3.87s.78-1.21 1.44-1.21a1.49 1.49 0 0 1 .24.02zm-23.23-2.37a5.33 5.33 0 0 0-.85-.07c-1.6 0-2.79.63-3.58 1.88-.8 1.24-1.2 3.11-1.2 5.61 0 2.5.4 4.37 1.2 5.62a3.96 3.96 0 0 0 3.58 1.87c1.6 0 2.8-.63 3.58-1.87s1.2-3.12 1.2-5.62-.4-4.38-1.2-5.62a3.83 3.83 0 0 0-2.73-1.8zm-.61 2.37c.54.09.94.48 1.2 1.19.3.8.46 2.1.46 3.86 0 1.77-.15 3.06-.46 3.86s-.78 1.21-1.44 1.21c-.66 0-1.14-.4-1.45-1.2s-.45-2.1-.45-3.87.15-3.06.45-3.86.79-1.21 1.44-1.21a.9.9 0 0 1 .24.02zm23.84 3.87a1.31 1.31 0 0 0-.24-.02c-.34 0-.62.11-.85.34a1.17 1.17 0 0 0-.35.87 1.17 1.17 0 0 0 .35.86c.23.22.51.33.85.33a1.18 1.18 0 0 0 1.21-1.2 1.17 1.17 0 0 0-.35-.86 1.15 1.15 0 0 0-.62-.32zm-23.84 0a1.3 1.3 0 0 0-.24-.02c-.34 0-.62.11-.85.34a1.17 1.17 0 0 0-.35.86 1.17 1.17 0 0 0 .35.87c.23.22.51.33.85.33a1.17 1.17 0 0 0 .86-.34c.23-.24.34-.52.34-.85a1.17 1.17 0 0 0-.34-.86 1.14 1.14 0 0 0-.62-.33zm85.03 18.7h-2.76l-2.99.72v2.57l2.97-.73v9.36h-3.19v2.52h9.16v-2.51h-3.2V78.2zm-12.9-.2a5.33 5.33 0 0 0-.85-.06c-1.6 0-2.79.63-3.58 1.88-.8 1.24-1.19 3.11-1.19 5.62 0 2.49.4 4.36 1.2 5.61a3.96 3.96 0 0 0 3.57 1.87c1.6 0 2.8-.62 3.59-1.87s1.18-3.11 1.18-5.62c0-2.5-.4-4.38-1.18-5.62a3.83 3.83 0 0 0-2.74-1.8zm-10.94.2h-2.76l-2.99.72v2.57l2.97-.73v9.36h-3.19v2.52h9.16v-2.52h-3.2V78.22zm10.33 2.18c.54.09.94.48 1.2 1.19.31.8.46 2.1.46 3.86 0 1.77-.15 3.06-.45 3.86s-.79 1.21-1.45 1.21c-.66 0-1.14-.4-1.44-1.2s-.46-2.1-.46-3.87.15-3.06.46-3.86.78-1.21 1.44-1.21c.08 0 .16 0 .24.02zm-23.23-2.37a5.36 5.36 0 0 0-.85-.07c-1.6 0-2.79.63-3.58 1.88-.8 1.24-1.19 3.11-1.19 5.61 0 2.5.4 4.37 1.19 5.62a3.96 3.96 0 0 0 3.58 1.87c1.6 0 2.79-.62 3.58-1.87s1.2-3.11 1.2-5.62c0-2.5-.4-4.38-1.2-5.62a3.82 3.82 0 0 0-2.73-1.8zm-10.95.2h-2.75l-2.99.71v2.57l2.97-.73v9.37h-3.2v2.5h9.16v-2.5h-3.19V78.2zm10.34 2.17c.54.09.94.48 1.2 1.19.31.8.46 2.1.46 3.87 0 1.76-.15 3.05-.45 3.85s-.79 1.21-1.45 1.21c-.66 0-1.14-.4-1.44-1.2s-.46-2.1-.46-3.86c0-1.78.15-3.06.46-3.87s.78-1.21 1.44-1.21a1.49 1.49 0 0 1 .24.02zm23.85 3.87a1.3 1.3 0 0 0-.25-.02c-.34 0-.62.11-.85.34a1.17 1.17 0 0 0-.35.87 1.17 1.17 0 0 0 .35.86c.23.22.51.34.85.34a1.17 1.17 0 0 0 .86-.35c.23-.23.35-.52.35-.85a1.17 1.17 0 0 0-.35-.86 1.14 1.14 0 0 0-.61-.33zm-46.1-6.05h-2.76l-2.99.72v2.57l2.97-.73v9.37h-3.19v2.51h9.16v-2.51h-3.2V78.2zm-12.9-.19a5.33 5.33 0 0 0-.85-.07c-1.6 0-2.79.63-3.58 1.88-.8 1.24-1.19 3.12-1.19 5.62s.4 4.36 1.19 5.61a3.96 3.96 0 0 0 3.58 1.87c1.6 0 2.8-.62 3.58-1.87s1.2-3.11 1.2-5.61c0-2.51-.4-4.39-1.2-5.63a3.83 3.83 0 0 0-2.73-1.8zm35.15 6.24a1.35 1.35 0 0 0-.24-.02 1.16 1.16 0 0 0-.85.35 1.17 1.17 0 0 0-.35.86 1.17 1.17 0 0 0 1.2 1.2c.34 0 .63-.12.86-.35s.35-.52.35-.85a1.17 1.17 0 0 0-.35-.86 1.15 1.15 0 0 0-.62-.33zm-47.07-6.24a5.36 5.36 0 0 0-.85-.06c-1.6 0-2.79.62-3.58 1.87-.8 1.24-1.19 3.12-1.19 5.62s.4 4.36 1.19 5.61a3.96 3.96 0 0 0 3.58 1.87c1.6 0 2.79-.62 3.58-1.87s1.2-3.11 1.2-5.61c0-2.51-.4-4.39-1.2-5.63a3.82 3.82 0 0 0-2.73-1.8zm11.3 2.37c.55.09.95.48 1.22 1.19.3.8.45 2.1.45 3.87 0 1.76-.15 3.05-.45 3.86s-.79 1.2-1.45 1.2c-.66 0-1.14-.4-1.44-1.2s-.46-2.1-.46-3.86c0-1.78.15-3.06.46-3.87s.78-1.2 1.44-1.2a1.52 1.52 0 0 1 .24.01zm-11.91 0c.54.09.94.49 1.2 1.2.3.8.46 2.08.46 3.86 0 1.76-.15 3.05-.45 3.85s-.8 1.21-1.45 1.21c-.66 0-1.14-.4-1.44-1.2s-.46-2.1-.46-3.86c0-1.77.15-3.07.46-3.87s.78-1.2 1.44-1.2a1.49 1.49 0 0 1 .24.01zm11.92 3.87a1.3 1.3 0 0 0-.24-.02c-.34 0-.62.11-.85.34a1.17 1.17 0 0 0-.35.87 1.17 1.17 0 0 0 .35.86c.23.22.51.34.85.34a1.17 1.17 0 0 0 .86-.35c.23-.23.35-.52.35-.85a1.17 1.17 0 0 0-.35-.86 1.15 1.15 0 0 0-.62-.33zm-11.92 0a1.3 1.3 0 0 0-.24-.02 1.16 1.16 0 0 0-.85.35c-.24.23-.35.51-.35.86a1.17 1.17 0 0 0 .35.86c.23.22.51.34.85.34.34 0 .62-.12.86-.35s.35-.52.35-.85a1.17 1.17 0 0 0-.35-.86 1.15 1.15 0 0 0-.62-.33zm85.03 18.7h-2.76l-2.99.72v2.57l2.97-.73v9.37h-3.19v2.51h9.16v-2.51h-3.2v-11.92zm-11.92 0h-2.76l-2.99.72v2.57l2.97-.73v9.36h-3.19v2.52h9.16v-2.51h-3.2v-11.93zm-12.9-.19a5.36 5.36 0 0 0-.85-.07c-1.6 0-2.79.63-3.58 1.88-.8 1.24-1.19 3.12-1.19 5.62s.4 4.36 1.19 5.61a3.96 3.96 0 0 0 3.58 1.87c1.6 0 2.79-.62 3.58-1.87s1.2-3.11 1.2-5.61c0-2.5-.4-4.38-1.2-5.63a3.83 3.83 0 0 0-2.73-1.8zm-11.92 0a5.34 5.34 0 0 0-.85-.07c-1.6 0-2.79.63-3.58 1.88-.8 1.24-1.19 3.12-1.19 5.62s.4 4.36 1.19 5.61a3.96 3.96 0 0 0 3.58 1.87c1.6 0 2.79-.62 3.58-1.87s1.2-3.11 1.2-5.61c0-2.5-.4-4.39-1.2-5.63a3.83 3.83 0 0 0-2.73-1.8zm11.3 2.37c.55.09.95.49 1.22 1.2.3.8.45 2.08.45 3.86 0 1.76-.15 3.05-.45 3.85s-.8 1.21-1.45 1.21c-.66 0-1.14-.4-1.44-1.2s-.46-2.1-.46-3.86c0-1.77.15-3.06.46-3.87s.78-1.2 1.44-1.2a1.49 1.49 0 0 1 .24.01zm-22.25-2.18h-2.75l-2.99.72v2.57l2.97-.73v9.37h-3.2v2.51h9.16v-2.51h-3.19v-11.92zm10.34 2.18c.54.09.94.48 1.2 1.19.3.8.46 2.1.46 3.87 0 1.76-.15 3.05-.45 3.85s-.8 1.21-1.46 1.21c-.65 0-1.13-.4-1.44-1.2s-.45-2.1-.45-3.86c0-1.78.15-3.06.45-3.87s.79-1.2 1.44-1.2l.24.01zm-23.23-2.37a5.39 5.39 0 0 0-.85-.07c-1.6 0-2.79.63-3.58 1.88-.8 1.24-1.19 3.12-1.19 5.62s.4 4.36 1.19 5.61a3.96 3.96 0 0 0 3.58 1.87c1.6 0 2.79-.62 3.58-1.87s1.2-3.11 1.2-5.61c0-2.51-.4-4.39-1.2-5.63a3.82 3.82 0 0 0-2.73-1.8zm35.15 6.24a1.4 1.4 0 0 0-.24-.02c-.34 0-.62.11-.86.35s-.34.51-.34.86.11.62.35.86c.23.22.51.33.85.33a1.17 1.17 0 0 0 .86-.34c.23-.24.34-.52.34-.85a1.17 1.17 0 0 0-.34-.87 1.15 1.15 0 0 0-.62-.32zm-47.07-6.24a5.36 5.36 0 0 0-.86-.07c-1.59 0-2.78.63-3.57 1.88-.8 1.24-1.2 3.12-1.2 5.62s.4 4.36 1.2 5.61a3.96 3.96 0 0 0 3.57 1.87c1.6 0 2.8-.62 3.59-1.87s1.19-3.11 1.19-5.61c0-2.51-.4-4.39-1.2-5.63a3.82 3.82 0 0 0-2.72-1.8zm11.3 2.37c.55.09.95.48 1.22 1.19.3.8.45 2.1.45 3.87 0 1.76-.15 3.05-.45 3.85s-.8 1.21-1.45 1.21c-.66 0-1.14-.4-1.45-1.2s-.45-2.1-.45-3.86c0-1.78.15-3.07.46-3.87s.78-1.2 1.44-1.2h.24zM153.3 109a1.42 1.42 0 0 0-.24-.02c-.34 0-.62.11-.85.35a1.17 1.17 0 0 0-.35.86 1.17 1.17 0 0 0 .35.86c.23.22.51.33.85.33a1.17 1.17 0 0 0 .86-.34c.23-.24.35-.52.35-.85 0-.35-.12-.63-.35-.86a1.14 1.14 0 0 0-.62-.33zm-46.1-6.05h-2.75l-3 .72v2.57l2.98-.73v9.37h-3.2v2.51h9.16v-2.52h-3.19v-11.92zm10.34 2.18c.54.09.94.48 1.2 1.19.3.8.46 2.1.46 3.87 0 1.76-.15 3.05-.45 3.85s-.8 1.21-1.45 1.21c-.66 0-1.14-.4-1.44-1.2s-.46-2.1-.46-3.86c0-1.78.15-3.06.45-3.87s.79-1.21 1.45-1.21a1.49 1.49 0 0 1 .24.02zm11.92 3.87a1.35 1.35 0 0 0-.24-.02 1.16 1.16 0 0 0-.85.35c-.24.23-.35.51-.35.85a1.17 1.17 0 0 0 .35.87c.23.22.51.33.85.33a1.18 1.18 0 0 0 1.21-1.19 1.17 1.17 0 0 0-.35-.87 1.15 1.15 0 0 0-.62-.32zm-11.92 0a1.35 1.35 0 0 0-.24-.02 1.16 1.16 0 0 0-.86.35 1.17 1.17 0 0 0-.34.86 1.17 1.17 0 0 0 1.2 1.2c.34 0 .62-.12.86-.35s.34-.52.34-.85a1.17 1.17 0 0 0-.34-.87 1.15 1.15 0 0 0-.62-.32z" transform="rotate(351.1)"/><path fill="url(#i)" d="M219.46 129.09c-26.8 21.98-41.8 21-38.07 13.14s42.32-41.66 51.44-43.75 2.28 18.04-13.37 30.61z" opacity=".77"/></svg>